SplineFontDB: 3.2
FontName: Slime300Human
FullName: Slime300Human
FamilyName: Slime300Human
Weight: Regular
Copyright: 2021, @m_z_k
UComments: "2021-6-5: Created with FontForge (http://fontforge.org)"
Version: 001.001
ItalicAngle: 0
UnderlinePosition: -102
UnderlineWidth: 51
Ascent: 819
Descent: 205
InvalidEm: 0
LayerCount: 3
Layer: 0 0 "+gMyXYgAA" 1
Layer: 1 0 "+Uk2XYgAA" 0
Layer: 2 0 "+gMyXYgAA 2" 1
XUID: [1021 144 -1017021733 14339]
StyleMap: 0x0000
FSType: 0
OS2Version: 0
OS2_WeightWidthSlopeOnly: 0
OS2_UseTypoMetrics: 1
CreationTime: 1622891653
ModificationTime: 1622975009
PfmFamily: 17
TTFWeight: 400
TTFWidth: 5
LineGap: 92
VLineGap: 0
OS2TypoAscent: 0
OS2TypoAOffset: 1
OS2TypoDescent: 0
OS2TypoDOffset: 1
OS2TypoLinegap: 92
OS2WinAscent: 0
OS2WinAOffset: 1
OS2WinDescent: 0
OS2WinDOffset: 1
HheadAscent: 0
HheadAOffset: 1
HheadDescent: 0
HheadDOffset: 1
OS2Vendor: 'PfEd'
MarkAttachClasses: 1
DEI: 91125
LangName: 1033
Encoding: ISO8859-1
UnicodeInterp: none
NameList: AGL For New Fonts
DisplaySize: -48
AntiAlias: 1
FitToEm: 0
WinInfo: 32 16 7
BeginPrivate: 0
EndPrivate
Grid
-1024 829.5625 m 0
 2048 829.5625 l 1024
-1024 819 m 0
 2048 819 l 1024
EndSplineSet
TeXData: 1 0 0 346030 173015 115343 0 1048576 115343 783286 444596 497025 792723 393216 433062 380633 303038 157286 324010 404750 52429 2506097 1059062 262144
BeginChars: 257 63

StartChar: A
Encoding: 65 65 0
Width: 573
Flags: W
HStem: -1 53<160.062 346.157> 456 51<102.411 382.371> 797 20G<294.5 310>
VStem: 32 51<146.194 426.886> 267 57<696.511 808.751> 472 51<229.054 416.587>
LayerCount: 3
Fore
SplineSet
33 251 m 0
 32 265 32 280 32 295 c 0
 32 316 33 338 35 359 c 0
 42 420 39 465 56 521 c 0
 65 551 80 583 104 622 c 0
 126 659 178 676 222 690 c 0
 238 694 253 698 267 701 c 1
 267 707 267 716 267 723 c 0
 267 728 267 733 267 733 c 2
 271 772 l 2
 272 779 275 804 280 809 c 0
 285 814 291 817 298 817 c 0
 322 817 324 798 324 775 c 0
 324 769 324 762 324 756 c 1
 318 699 l 1
 430 676 523 538 523 428 c 1
 523 411 l 2
 523 363 517 311 510 260 c 0
 486 90 365 -1 251 -1 c 0
 144 -1 43 80 33 251 c 0
472 412 m 1
 409 424 321 456 254 456 c 0
 237 456 218 452 200 452 c 0
 169 452 122 445 92 429 c 1
 92 384 83 333 83 285 c 2
 83 247 l 2
 83 140 129 52 248 52 c 0
 407 52 412 110 459 254 c 0
 471 290 472 339 472 380 c 0
 472 415 472 386 472 412 c 1
100 487 m 1
 135 498 172 503 196 503 c 0
 215 503 235 507 253 507 c 0
 329 507 374 487 441 474 c 1
 455 470 l 1
 465 467 l 1
 446 547 379 638 302 651 c 1
 295 651 l 2
 282 651 260 648 237 641 c 0
 207 632 176 623 158 605 c 0
 156 603 136 578 135 577 c 0
 113 541 112 531 105 506 c 0
 103 500 102 494 100 487 c 1
EndSplineSet
Validated: 1
EndChar

StartChar: B
Encoding: 66 66 1
Width: 538
Flags: W
HStem: 5 54<183.192 363.694> 167 53<80.5156 132.582> 631 54<144.623 307.656>
VStem: 240 50<257.18 404.078> 250 50<260.574 428.82> 461 52<168.474 423.523>
LayerCount: 3
Fore
SplineSet
275 429 m 0xec
 289 429 300 418 300 404 c 2
 300 402 l 1xec
 297 361 294 320 290 280 c 0
 289 267 278 257 265 257 c 0
 251 257 240 268 240 282 c 2
 240 284 l 1xf4
 244 324 247 365 250 406 c 0
 252 419 261 429 275 429 c 0xec
189 821 m 0
 204 821 215 809 215 794 c 0
 215 789 214 784 211 780 c 0
 191 744 163 704 144 669 c 1
 169 674 209 685 235 685 c 0
 342 685 434 585 466 502 c 0
 498 423 513 350 513 284 c 0
 513 132 429 5 280 5 c 0
 250 5 217 11 184 23 c 0
 134 41 82 72 31 119 c 0
 25 124 22 132 22 139 c 0
 22 147 24 150 26 155 c 2
 35 174 l 2
 36 175 37 177 39 179 c 0
 56 199 77 214 101 220 c 0
 103 220 105 220 107 220 c 0
 121 220 133 208 133 193 c 0
 133 181 124 170 113 167 c 0
 102 164 91 158 80 146 c 1
 122 111 163 88 200 74 c 0
 229 64 256 59 281 59 c 0
 330 59 371 78 402 110 c 0
 438 148 461 208 461 285 c 0
 461 342 448 408 419 481 c 0
 392 545 316 631 235 631 c 0
 209 631 155 613 125 613 c 2
 109 613 l 2
 100 613 90 614 85 619 c 0
 78 626 81 642 81 650 c 0
 81 659 84 667 86 672 c 0
 107 714 143 766 167 808 c 0
 172 815 180 821 189 821 c 0
EndSplineSet
Validated: 1
EndChar

StartChar: C
Encoding: 67 67 2
Width: 568
Flags: W
HStem: 670 47<97 235.68 291 407.795>
VStem: 241 51<604.69 674 725 791.536>
LayerCount: 3
Fore
SplineSet
257 607 m 0
 248 611 241 620 241 630 c 2
 241 675 l 1
 202 675 141 670 97 670 c 1
 158 481 190 255 268 88 c 1
 275 102 281 117 285 131 c 0
 339 321 399 481 463 668 c 1
 401 668 356 674 291 674 c 1
 291 664 292 653 292 643 c 0
 292 624 286 604 269 604 c 0
 265 604 261 605 257 607 c 0
506 644 m 0
 443 458 384 306 333 118 c 0
 324 85 308 55 296 21 c 0
 293 12 283 3 273 3 c 0
 264 3 256 8 252 15 c 0
 142 195 126 465 42 676 c 0
 40 681 38 684 38 691 c 0
 38 704 45 717 61 717 c 0
 108 717 189 725 238 725 c 1
 234 741 234 753 234 769 c 0
 234 779 227 782 227 792 c 0
 227 805 238 817 252 817 c 0
 280 817 285 780 285 755 c 0
 285 734 286 741 290 724 c 1
 313 724 363 730 410 730 c 0
 466 730 519 722 519 687 c 0
 519 674 510 656 506 644 c 0
EndSplineSet
Validated: 1
EndChar

StartChar: D
Encoding: 68 68 3
Width: 620
Flags: W
VStem: 111 50<264 294.787> 283 45<-20.7855 18.1088>
LayerCount: 3
Fore
SplineSet
328 4 m 0
 328 -9 316 -21 303 -21 c 0
 295 -21 288 -17 283 -11 c 0
 283 -11 231 57 185 125 c 0
 164 155 145 185 131 210 c 0
 122 227 111 242 111 264 c 0
 111 289 124 308 139 323 c 0
 166 350 205 369 235 384 c 0
 250 391 261 397 271 404 c 1
 266 427 250 443 232 461 c 0
 198 495 147 530 113 564 c 0
 100 577 84 592 84 616 c 0
 84 621 86 626 89 630 c 0
 129 690 154 784 206 836 c 0
 211 841 218 843 224 843 c 0
 237 843 249 831 249 818 c 0
 249 812 247 805 242 800 c 0
 203 760 170 668 137 613 c 1
 152 592 172 578 198 557 c 0
 236 526 283 490 308 445 c 0
 316 430 322 414 322 396 c 0
 322 383 314 375 310 371 c 0
 296 357 278 350 258 340 c 0
 228 325 193 306 175 288 c 0
 165 278 161 269 161 264 c 1
 165 254 l 1
 192 192 323 20 323 20 c 2
 326 16 328 9 328 4 c 0
348 228 m 0
 335 228 323 240 323 253 c 0
 323 266 333 275 340 282 c 0
 370 312 417 339 447 369 c 0
 463 385 473 401 476 415 c 1
 427 471 366 520 319 577 c 0
 315 582 313 587 313 593 c 0
 313 606 325 618 338 618 c 0
 345 618 352 615 357 609 c 0
 406 550 472 499 521 440 c 0
 525 435 527 430 527 424 c 0
 527 387 506 357 483 334 c 0
 463 314 440 297 419 282 c 0
 400 268 384 256 373 244 c 0
 367 236 360 228 348 228 c 0
EndSplineSet
Validated: 1
EndChar

StartChar: E
Encoding: 69 69 4
Width: 510
Flags: W
HStem: 4 54<181.048 330.168> 305 62<238.91 285.09> 606 50<105 391> 757 50<149.779 328.957>
VStem: 55 50<656 712.996> 69 47<271.376 505.765> 398 43<194.294 510.668>
LayerCount: 3
Fore
SplineSet
290 330 m 0xf2
 290 316 279 305 265 305 c 0
 255 305 247 311 243 319 c 2
 237 331 l 2
 235 335 234 338 234 342 c 0
 234 356 245 367 259 367 c 0
 269 367 277 361 281 353 c 2
 287 341 l 2
 289 337 290 334 290 330 c 0xf2
69 496 m 0xf6
 69 503 85 513 91 513 c 0
 97 513 104 511 109 506 c 0
 114 501 116 495 116 489 c 0
 122 362 123 320 133 195 c 0
 137 146 155 106 178 83 c 0
 194 67 214 58 243 58 c 0
 245 58 247 58 249 57 c 0
 258 55 267 54 274 54 c 0
 283 54 292 55 299 58 c 0
 317 65 331 79 342 95 c 2
 379 148 l 1
 392 205 l 1
 398 334 l 1
 399 398 l 1
 398 413 398 422 398 432 c 0
 398 445 396 462 396 478 c 0
 396 492 397 504 404 511 c 0
 409 516 416 518 422 518 c 0
 428 518 435 516 440 511 c 0
 445 506 447 500 447 494 c 0
 447 472 448 450 448 429 c 0
 448 351 445 275 442 200 c 0
 442 198 441 197 441 195 c 2
 426 132 l 2
 425 129 425 127 423 124 c 2
 384 67 l 2
 368 43 345 22 316 11 c 0
 303 6 289 4 274 4 c 0
 263 4 252 5 240 8 c 0
 200 9 167 24 143 48 c 0
 108 83 91 134 83 188 c 0
 83 189 83 190 83 191 c 0
 79 254 69 363 69 462 c 0
 69 474 69 485 69 496 c 0xf6
105 656 m 1xfa
 391 659 l 1
 387 667 383 673 380 686 c 1
 374 698 366 707 359 714 c 0
 333 740 297 750 234 756 c 0
 228 757 223 757 218 757 c 0
 162 757 131 726 112 688 c 0
 106 674 105 673 105 664 c 0
 105 662 105 659 105 656 c 1xfa
416 609 m 2
 92 606 l 1
 88 604 81 606 77 606 c 0
 64 606 55 615 55 628 c 2
 55 631 l 2
 55 634 56 642 56 646 c 0
 56 655 55 657 55 668 c 0xfa
 55 688 63 701 69 713 c 0xf6
 95 764 143 807 218 807 c 0
 224 807 231 807 238 806 c 0
 302 800 356 788 395 749 c 0
 407 737 417 723 426 706 c 0
 427 703 429 700 429 697 c 0
 429 695 430 692 433 686 c 0
 436 680 442 669 442 655 c 0
 442 652 442 649 441 646 c 1
 441 634 l 2
 441 620 430 609 416 609 c 2
EndSplineSet
Validated: 1
EndChar

StartChar: F
Encoding: 70 70 5
Width: 510
Flags: W
HStem: 760 50<142.847 340>
LayerCount: 3
Fore
SplineSet
95 502 m 1
 263 98 l 1
 297 193 313 239 356 338 c 0
 362 352 394 453 396 484 c 1
 340 529 285 573 232 617 c 1
 179 578 131 539 105 514 c 0
 101 509 97 505 95 502 c 1
444 781 m 0
 444 773 439 765 433 760 c 2
 433 760 355 707 273 648 c 1
 325 605 378 562 433 519 c 0
 442 511 446 500 446 486 c 0
 446 445 407 333 400 316 c 0
 353 202 338 141 287 25 c 0
 283 16 274 10 264 10 c 0
 254 10 245 16 241 25 c 2
 44 493 l 2
 43 496 42 499 42 503 c 0
 42 514 46 521 51 527 c 0
 56 534 62 541 70 549 c 0
 96 576 142 613 192 650 c 1
 148 687 105 724 61 762 c 0
 55 767 52 774 52 781 c 0
 52 787 54 794 59 799 c 0
 65 804 78 806 78 806 c 2
 79 806 80 806 81 806 c 0
 97 806 167 810 187 810 c 0
 249 810 357 806 419 806 c 0
 432 806 444 794 444 781 c 0
142 758 m 1
 172 732 203 706 233 681 c 1
 272 709 310 736 340 757 c 1
 292 758 227 760 187 760 c 0
 182 760 160 759 142 758 c 1
EndSplineSet
Validated: 1
EndChar

StartChar: G
Encoding: 71 71 6
Width: 552
Flags: W
LayerCount: 3
Fore
SplineSet
268 753 m 1
 207 687 155 639 92 576 c 1
 147 527 190 498 252 448 c 1
 335 388 417 333 490 261 c 0
 496 255 497 248 497 242 c 0
 497 232 493 228 489 224 c 0
 488 222 486 219 483 217 c 0
 476 209 466 199 453 186 c 0
 409 142 333 68 283 27 c 0
 275 21 269 16 263 12 c 0
 260 10 253 6 244 6 c 0
 239 6 233 7 226 13 c 0
 155 84 96 158 35 230 c 0
 31 235 29 240 29 246 c 0
 29 252 31 259 36 263 c 0
 91 320 153 368 211 417 c 1
 156 457 99 501 40 557 c 0
 34 563 32 570 32 575 c 0
 32 581 35 587 36 589 c 0
 37 590 38 591 38 592 c 0
 44 599 50 605 61 615 c 0
 128 685 181 729 247 805 c 0
 252 810 259 813 266 813 c 0
 272 813 277 811 282 807 c 0
 360 742 484 628 494 618 c 0
 496 615 496 616 499 611 c 0
 499 610 501 607 501 600 c 0
 501 587 490 575 476 575 c 0
 464 575 461 580 455 585 c 0
 452 588 446 594 437 602 c 0
 399 640 326 704 268 753 c 1
248 63 m 1
 298 105 374 177 418 221 c 0
 425 228 432 236 438 241 c 1
 382 294 319 339 252 387 c 1
 199 340 140 295 88 245 c 1
 138 185 190 121 248 63 c 1
EndSplineSet
Validated: 1
EndChar

StartChar: H
Encoding: 72 72 7
Width: 550
Flags: HW
HStem: 6 51<184.023 365.969> 211 46<98 434> 378 50<28.492 485.804> 552 59<101 391.621> 564 50<234.891 425> 764 50<184.988 330.305>
VStem: 423 57<614 677.396> 434 45<117.091 209.612>
LayerCount: 3
Fore
SplineSet
254 428 m 0xe4
 302 428 368 430 415 430 c 0
 456 430 486 425 486 403 c 0
 486 391 478 378 462 378 c 0
 406 378 319 378 262 378 c 0
 210 378 110 378 57 380 c 0
 38 381 28 390 28 406 c 0
 28 426 42 430 62 430 c 0
 114 430 206 428 254 428 c 0xe4
423 629 m 0xee
 423 631 423 632 423 634 c 0
 418 657 409 670 395 684 c 0
 392 687 389 690 386 693 c 0
 368 715 341 737 317 750 c 0
 298 760 261 764 230 764 c 0
 224 764 217 762 208 758 c 0
 184 746 157 717 143 694 c 0
 128 670 116 637 101 611 c 1xf6
 425 614 l 1
 424 618 423 624 423 629 c 0xee
473 641 m 0
 476 626 480 616 480 598 c 0
 480 579 472 564 454 564 c 0xee
 409 564 266 552 163 552 c 0
 106 552 61 555 50 566 c 0
 45 571 45 570 45 576 c 0
 45 591 50 608 56 623 c 0
 85 695 117 768 186 802 c 0
 200 809 214 814 230 814 c 0
 271 814 313 809 341 794 c 0
 370 778 401 753 423 726 c 1
 447 704 465 679 473 641 c 0
380 257 m 0
 397 257 418 256 438 256 c 0
 440 256 440 256 442 256 c 0
 455 256 469 255 472 245 c 0
 477 226 479 209 479 192 c 0xe5
 479 73 367 6 266 6 c 0
 242 6 219 9 198 17 c 0
 121 45 71 102 50 189 c 0
 47 200 47 202 46 206 c 0
 44 210 40 223 40 227 c 0
 40 249 62 254 84 254 c 2
 276 254 l 2
 317 255 346 257 380 257 c 0
285 208 m 2
 98 204 l 1
 116 130 154 87 217 62 c 0
 233 58 251 57 270 57 c 0
 325 57 370 72 399 101 c 0
 420 122 434 151 434 195 c 0
 434 201 434 205 434 209 c 0
 417 210 402 211 389 211 c 0
 355 211 329 209 285 208 c 2
EndSplineSet
Validated: 1
EndChar

StartChar: I
Encoding: 73 73 8
Width: 634
Flags: W
HStem: 0 49<284.609 329.069> 373 68<260.972 321.705> 798 20G<289 301.5>
VStem: 257 67<377.38 439.45>
LayerCount: 3
Fore
SplineSet
519 401 m 1
 444 523 385 625 297 750 c 1
 226 633 156 548 99 411 c 0
 95 403 89 390 86 383 c 1
 89 377 96 364 105 347 c 0
 151 266 294 49 303 49 c 0
 311 49 317 53 321 59 c 0
 369 123 493 319 516 391 c 1
 519 401 l 1
296 818 m 0
 307 818 314 811 319 805 c 0
 421 664 483 554 566 419 c 0
 568 415 570 411 570 406 c 0
 570 383 562 368 554 348 c 0
 511 243 410 95 357 24 c 0
 348 11 334 0 313 0 c 0
 302 0 297 4 293 7 c 0
 287 11 282 15 277 20 c 0
 224 73 108 238 56 331 c 0
 47 347 42 356 37 371 c 0
 36 374 35 378 35 383 c 0
 35 404 47 417 53 431 c 0
 117 585 192 671 270 802 c 0
 274 809 282 818 296 818 c 0
257 409 m 0
 257 428 274 441 288 441 c 0
 290 441 291 441 293 441 c 0
 307 441 324 430 324 413 c 0
 324 393 317 373 295 373 c 0
 280 373 269 384 261 395 c 0
 258 399 257 404 257 409 c 0
EndSplineSet
Validated: 1
EndChar

StartChar: J
Encoding: 74 74 9
Width: 510
Flags: W
HStem: 4 50<188.749 326.631> 305 62<238.91 285.09> 579 50<175.42 294.981> 753 50<103 380>
VStem: 69 47<271.376 512.803> 398 50<186.496 517.677>
LayerCount: 3
Fore
SplineSet
422 518 m 0
 435 518 447 507 447 494 c 0
 447 472 448 450 448 429 c 0
 448 351 445 275 442 200 c 0
 442 198 441 197 441 195 c 2
 426 132 l 2
 425 129 425 127 423 124 c 2
 384 67 l 2
 362 34 328 4 274 4 c 0
 263 4 252 5 240 8 c 0
 138 11 96 99 83 188 c 0
 83 189 83 190 83 191 c 0
 79 254 69 363 69 462 c 2
 69 496 l 2
 69 503 85 513 91 513 c 0
 104 513 116 502 116 489 c 0
 122 362 123 320 133 195 c 0
 137 146 155 106 178 83 c 0
 194 67 214 58 243 58 c 0
 253 58 266 54 274 54 c 0
 309 54 327 73 342 95 c 2
 379 148 l 1
 392 205 l 1
 398 334 l 1
 399 398 l 1
 398 413 398 422 398 432 c 0
 398 445 396 462 396 478 c 0
 396 500 401 518 422 518 c 0
290 330 m 0
 290 316 279 305 265 305 c 0
 255 305 247 311 243 319 c 2
 237 331 l 2
 235 335 234 338 234 342 c 0
 234 356 245 367 259 367 c 0
 269 367 277 361 281 353 c 2
 287 341 l 2
 289 337 290 334 290 330 c 0
35 778 m 0
 35 791 47 803 60 803 c 2
 124 803 l 2
 142 803 159 804 178 804 c 2
 233 804 l 2
 280 804 328 807 375 807 c 0
 382 807 390 807 396 806 c 0
 398 806 401 807 405 807 c 0
 412 807 420 807 428 799 c 0
 435 792 436 783 436 777 c 0
 436 755 426 734 414 713 c 0
 389 668 345 619 299 594 c 0
 283 585 266 579 248 579 c 0
 143 579 97 656 62 723 c 0
 52 741 35 758 35 778 c 0
103 753 m 1
 134 695 162 629 248 629 c 0
 254 629 264 632 275 638 c 0
 317 661 361 712 380 757 c 1
 378 757 377 757 375 757 c 0
 328 757 281 754 233 754 c 2
 178 754 l 2
 160 754 142 753 124 753 c 2
 103 753 l 1
EndSplineSet
Validated: 1
EndChar

StartChar: K
Encoding: 75 75 10
Width: 524
Flags: W
HStem: 6 51<184.023 365.969> 211 46<98 434> 370 62<58.2842 110.363 234.176 283.992 399.106 449.518> 552 59<102.09 391.621> 564 50<234.891 425> 764 50<184.988 330.305>
VStem: 52 60<387.191 429.205> 231 54<374.008 435.513> 396 58<372.396 432.397> 423 57<614 677.396> 434 45<117.091 209.612>
LayerCount: 3
Fore
SplineSet
285 208 m 2xe720
 98 204 l 1
 116 130 154 87 217 62 c 0
 233 58 251 57 270 57 c 0
 325 57 370 72 399 101 c 0
 420 122 434 151 434 195 c 2
 434 209 l 1
 417 210 402 211 389 211 c 0
 355 211 329 209 285 208 c 2xe720
380 257 m 0
 397 257 418 256 438 256 c 2
 442 256 l 2
 455 256 469 255 472 245 c 0
 477 226 479 209 479 192 c 0
 479 73 367 6 266 6 c 0
 242 6 219 9 198 17 c 0
 121 45 71 102 50 189 c 0
 47 200 47 202 46 206 c 0
 44 210 40 223 40 227 c 0
 40 249 62 254 84 254 c 2
 276 254 l 1
 317 255 346 257 380 257 c 0
163 552 m 0xf780
 162 552 160 552 159 552 c 0
 101 552 45 552 45 576 c 0
 45 591 50 608 56 623 c 0
 85 695 117 768 186 802 c 0
 200 809 214 814 230 814 c 0
 271 814 313 809 341 794 c 0
 370 778 401 753 423 726 c 1
 447 704 465 679 473 641 c 0
 476 626 480 616 480 598 c 0xf740
 480 579 472 564 454 564 c 0xef80
 409 564 266 552 163 552 c 0xf780
423 629 m 2
 423 634 l 1
 418 657 409 670 395 684 c 0
 392 687 389 690 386 693 c 0
 368 715 341 737 317 750 c 0
 298 760 261 764 230 764 c 0
 224 764 217 762 208 758 c 0
 184 746 157 717 143 694 c 0
 128 670 116 637 101 611 c 1xf740
 425 614 l 1xef40
 424 618 423 624 423 629 c 2
52 407 m 0
 52 420 64 432 77 432 c 0
 92 432 104 421 108 413 c 0
 113 408 112 401 112 395 c 0
 112 382 100 370 87 370 c 0
 74 370 64 382 58 387 c 0
 54 391 52 400 52 407 c 0
258 436 m 0
 273 436 284 426 284 410 c 0
 285 407 285 401 285 398 c 0
 285 385 273 373 260 373 c 0
 244 373 231 390 231 406 c 0
 231 422 243 436 258 436 c 0
454 395 m 0xe780
 454 382 442 370 429 370 c 0
 412 370 396 388 396 406 c 2
 396 410 l 2
 396 423 408 435 421 435 c 0
 433 435 444 426 446 414 c 1
 451 409 454 402 454 395 c 0xe780
EndSplineSet
Validated: 1
EndChar

StartChar: L
Encoding: 76 76 11
Width: 598
Flags: W
HStem: 635 62<270.787 494.39> 642 48<144 437.829>
LayerCount: 3
Fore
SplineSet
230 776 m 0x80
 218 754 144 686 144 686 c 1
 144 686 222 688 268 690 c 0x40
 328 693 352 697 442 697 c 0
 498 697 551 689 551 654 c 0
 551 641 548 611 544 599 c 0
 516 515 376 9 302 9 c 0
 293 9 285 14 281 21 c 0
 172 202 114 551 77 628 c 0
 75 633 70 651 70 658 c 0
 70 672 76 687 90 689 c 1
 111 735 184 812 207 819 c 0
 209 820 211 820 213 820 c 0
 225 820 236 810 238 801 c 0
 240 792 235 785 230 776 c 0x80
273 642 m 1
 217 641 173 637 129 637 c 1
 190 448 219 261 297 94 c 1
 304 108 410 372 414 386 c 0
 468 576 431 448 495 635 c 1x80
 420 635 354 642 286 642 c 2
 273 642 l 1
EndSplineSet
Validated: 1
EndChar

StartChar: M
Encoding: 77 77 12
Width: 550
Flags: W
HStem: 555 58<101.687 261.531> 566 48<309.36 425> 764 50<184.988 330.305>
VStem: 423 57<614 677.396>
LayerCount: 3
Fore
SplineSet
308 557 m 0x70
 305 556 304 554 304 551 c 0
 304 542 313 526 314 525 c 2
 338 460 l 2
 349 428 363 385 378 356 c 0
 405 307 444 258 471 204 c 0
 473 200 474 195 474 192 c 0
 474 179 466 171 462 167 c 0
 446 151 410 133 392 119 c 0
 359 84 325 56 292 21 c 0
 285 13 274 10 265 10 c 0
 243 10 229 21 215 32 c 0
 174 64 129 117 100 155 c 0
 91 166 84 176 79 184 c 0
 74 192 69 197 69 209 c 0
 69 239 80 268 94 294 c 0
 118 337 150 374 178 412 c 0
 198 438 236 506 257 539 c 0
 258 539 265 554 262 554 c 0
 252 555 242 555 234 555 c 0xb0
 208 555 187 552 163 552 c 0
 103 552 45 552 45 576 c 0
 45 591 50 608 56 623 c 0
 85 695 117 768 186 802 c 0
 200 809 214 814 230 814 c 0
 271 814 313 809 341 794 c 0
 370 778 401 753 423 726 c 1
 447 704 465 679 473 641 c 0
 476 626 480 616 480 598 c 0
 480 579 472 564 454 564 c 0
 441 564 419 566 393 566 c 0
 367 566 337 564 308 557 c 0x70
119 213 m 1
 141 178 179 135 211 103 c 0
 229 85 243 71 262 62 c 1
 293 94 325 121 356 154 c 0
 360 158 364 161 369 164 c 0
 383 174 405 187 418 196 c 1
 393 242 358 288 334 333 c 0
 317 366 301 409 291 443 c 1
 278 476 l 1
 259 445 235 403 218 382 c 0
 192 346 158 307 138 270 c 0
 127 250 121 230 119 213 c 1
423 629 m 2
 423 634 l 1
 418 657 409 670 395 684 c 0
 392 687 389 690 386 693 c 0
 368 715 341 737 317 750 c 0
 298 760 261 764 230 764 c 0
 224 764 217 762 208 758 c 0
 184 746 157 717 143 694 c 0
 128 670 116 637 101 611 c 1
 288 613 l 0xb0
 425 614 l 1x70
 424 618 423 624 423 629 c 2
EndSplineSet
Validated: 1
EndChar

StartChar: N
Encoding: 78 78 13
Width: 482
Flags: W
VStem: 64 50<509.725 573.051> 204 50<353.463 413.345> 216 50<703.584 783.786> 276 50<513.72 607.792>
LayerCount: 3
Fore
SplineSet
256 31 m 0xd0
 256 18 244 6 231 6 c 0
 218 6 210 16 203 23 c 0
 150 76 103 153 51 205 c 0
 46 210 44 217 44 223 c 0
 44 246 56 264 70 278 c 0
 102 310 162 332 192 362 c 0
 201 371 204 378 204 385 c 0xd0
 204 388 201 395 191 405 c 0
 165 431 120 455 92 483 c 0
 78 497 64 515 64 539 c 0
 64 554 70 567 77 578 c 0
 109 630 174 667 205 720 c 0
 213 733 216 744 216 755 c 2
 216 759 l 2
 216 772 228 784 241 784 c 0
 254 784 266 772 266 759 c 2
 266 755 l 2xb0
 266 733 258 713 248 695 c 0
 222 651 180 617 145 582 c 0
 133 570 124 560 119 552 c 0
 115 545 114 540 114 539 c 0
 114 536 117 528 127 518 c 0
 153 492 199 469 227 441 c 0
 241 427 254 409 254 385 c 0
 254 361 241 341 227 327 c 0
 194 294 135 273 105 243 c 0
 100 238 98 234 96 231 c 0
 145 179 190 107 239 58 c 0
 246 51 256 44 256 31 c 0xd0
418 77 m 0
 418 64 406 52 393 52 c 0
 383 52 375 58 371 66 c 2
 364 79 l 1
 334 111 295 150 264 185 c 0
 250 201 240 212 232 228 c 0
 230 231 228 235 228 243 c 0
 228 266 240 284 253 297 c 0
 274 318 302 333 327 347 c 0
 350 360 370 370 378 380 c 1
 372 402 355 420 339 441 c 0
 324 461 307 483 294 506 c 0
 284 524 276 544 276 565 c 0
 276 612 308 641 334 665 c 0
 354 684 373 702 387 727 c 0
 391 734 400 740 409 740 c 0
 422 740 434 728 434 715 c 0
 434 711 433 707 431 703 c 0
 409 664 382 642 354 614 c 0
 335 595 326 582 326 565 c 0
 326 557 330 545 338 530 c 0
 357 496 394 457 414 422 c 0
 421 409 428 395 428 379 c 0
 428 362 419 350 411 342 c 0
 381 312 317 290 289 262 c 0
 283 256 280 251 279 247 c 0
 309 202 369 149 404 110 c 0
 405 108 406 106 407 104 c 2
 415 88 l 2
 417 84 418 81 418 77 c 0
EndSplineSet
Validated: 1
EndChar

StartChar: O
Encoding: 79 79 14
Width: 573
Flags: W
HStem: -1 53<160.062 346.157> 301 85<258.94 295.719> 797 20G<294.5 310>
VStem: 32 51<146.194 502.779> 254 50<310.141 382.762> 267 57<696.511 808.751> 472 51<229.054 508.117>
LayerCount: 3
Fore
SplineSet
33 251 m 0xf6
 32 265 32 280 32 295 c 0
 32 316 33 338 35 359 c 0
 42 420 39 465 56 521 c 0
 65 551 80 583 104 622 c 0
 126 659 178 676 222 690 c 0
 238 694 253 698 267 701 c 1
 267 733 l 1
 271 772 l 2
 272 779 275 804 280 809 c 0
 285 814 291 817 298 817 c 0
 322 817 324 798 324 775 c 0
 324 769 324 762 324 756 c 2
 318 699 l 1
 430 676 523 538 523 428 c 2
 523 411 l 2
 523 363 517 311 510 260 c 0
 486 90 365 -1 251 -1 c 0
 144 -1 43 80 33 251 c 0xf6
135 577 m 0
 83 525 83 389 83 285 c 2
 83 247 l 2
 83 140 129 52 248 52 c 0
 407 52 412 110 459 254 c 0
 471 290 472 339 472 380 c 2
 472 412 l 2
 472 436 470 448 465 467 c 0
 446 547 379 638 302 651 c 1
 295 651 l 2
 282 651 260 648 237 641 c 0
 207 632 176 623 158 605 c 0
 156 603 136 578 135 577 c 0
262 374 m 0
 265 380 270 384 277 386 c 0
 284 388 290 386 296 383 c 0
 305 378 309 368 308 359 c 2
 304 320 l 2xfa
 304 316 303 313 301 310 c 0
 298 304 302 316 297 311 c 0
 292 306 273 298 267 301 c 0xf6
 258 306 253 316 254 325 c 2xfa
 259 365 l 2
 259 369 260 371 262 374 c 0
EndSplineSet
Validated: 1
EndChar

StartChar: P
Encoding: 80 80 15
Width: 540
Flags: W
HStem: 14 50<209.825 358.511> 209 49<116 304.231> 220 58<228.87 438.541> 285 51<179.876 377.63> 465 46<110 456.205> 754 49<124 413>
VStem: 61 57<148.909 208.811> 457 45<399.174 457.612>
LayerCount: 3
Fore
SplineSet
118 194 m 2xdf
 118 189 l 1
 124 166 134 154 148 140 c 0
 151 137 154 134 157 131 c 0
 176 109 203 88 227 76 c 0
 244 67 275 64 304 64 c 0
 307 64 311 64 315 64 c 0
 321 64 328 67 337 71 c 0
 361 84 387 113 400 136 c 0
 414 160 426 194 440 220 c 1xbf
 116 209 l 1
 117 205 118 199 118 194 c 2xdf
376 278 m 0
 377 278 379 278 380 278 c 0xbf
 394 278 407 279 420 279 c 0
 461 279 494 275 495 257 c 0
 495 242 491 224 485 209 c 0
 458 136 428 63 360 27 c 0
 346 20 332 14 316 14 c 0
 312 14 308 14 304 14 c 0
 267 14 230 18 205 31 c 0
 176 46 144 71 121 97 c 1
 96 118 78 143 69 181 c 0
 66 196 61 206 61 224 c 0
 61 243 68 258 86 258 c 0xdf
 131 259 273 275 376 278 c 0
403 505 m 0
 412 505 441 504 461 504 c 2
 465 504 l 2
 478 504 492 503 495 493 c 0
 500 474 502 457 502 440 c 0
 502 321 376 285 275 285 c 0
 251 285 228 288 207 296 c 0
 130 324 83 359 62 446 c 0
 59 457 59 459 58 463 c 0
 56 467 52 480 52 484 c 0
 52 506 74 511 96 511 c 2
 288 511 l 1
 291 511 293 511 296 511 c 0
 334 511 371 505 403 505 c 0
297 465 m 2
 110 461 l 1
 128 387 160 357 226 341 c 0
 242 337 260 336 279 336 c 0
 334 336 379 351 408 380 c 0
 429 401 457 399 457 443 c 2
 457 457 l 1
 440 458 425 459 412 459 c 0
 380 459 346 465 306 465 c 0
 303 465 300 465 297 465 c 2
413 804 m 0
 428 804 435 807 447 807 c 0
 473 807 495 793 495 772 c 0
 495 750 476 736 461 724 c 0
 445 711 426 699 404 689 c 0
 364 670 342 651 302 632 c 0
 290 626 277 615 249 615 c 0
 227 615 208 626 191 636 c 0
 138 666 69 723 44 760 c 0
 41 764 40 768 40 772 c 0
 40 801 84 803 122 803 c 0
 127 803 132 803 136 803 c 0
 221 803 327 804 413 804 c 0
413 755 m 1
 396 755 378 755 360 755 c 0
 289 755 211 754 142 754 c 0
 136 754 130 754 124 754 c 1
 152 725 189 697 226 676 c 0
 237 670 245 666 251 664 c 0
 255 666 265 671 271 674 c 0
 310 692 331 711 373 731 c 0
 388 738 402 747 413 755 c 1
EndSplineSet
Validated: 1
EndChar

StartChar: Q
Encoding: 81 81 16
Width: 620
Flags: W
HStem: 0 49<284.609 329.831> 371 50<104.406 506> 374 50<104 319.342> 798 20G<289 301.5>
LayerCount: 3
Fore
SplineSet
296 818 m 0xd0
 307 818 314 811 319 805 c 0
 421 664 483 554 566 419 c 0
 568 415 570 411 570 406 c 0
 570 383 562 368 554 348 c 0
 511 243 410 95 357 24 c 0
 348 11 334 0 313 0 c 0
 302 0 297 4 293 7 c 0
 287 11 282 15 277 20 c 0
 224 73 108 238 56 331 c 0
 47 347 42 356 37 371 c 0
 36 374 35 378 35 383 c 0
 35 404 47 417 53 431 c 0
 117 585 192 671 270 802 c 0
 274 809 282 818 296 818 c 0xd0
506 366 m 1
 392 368 l 2
 379 368 334 371 321 371 c 0xd0
 286 371 227 374 192 374 c 0
 180 374 147 374 121 374 c 0
 108 374 97 374 91 374 c 1xb0
 95 367 99 358 105 347 c 0
 151 266 294 49 303 49 c 0
 311 49 317 53 321 59 c 0
 364 117 469 281 506 366 c 1
104 424 m 1xb0
 108 424 118 424 130 424 c 0
 153 424 183 424 192 424 c 0xb0
 227 424 286 421 321 421 c 0xd0
 335 421 381 418 395 418 c 2
 510 416 l 1
 439 531 381 630 297 750 c 1
 228 637 160 554 104 424 c 1xb0
EndSplineSet
Validated: 1
EndChar

StartChar: R
Encoding: 82 82 17
Width: 422
Flags: W
VStem: 176 50<12.8359 632.994 690 779.906>
LayerCount: 3
Fore
SplineSet
317 785 m 0
 330 785 342 773 342 760 c 0
 342 754 340 748 335 743 c 2
 317 725 l 2
 317 725 302 705 287 685 c 0
 266 657 242 624 226 607 c 1
 226 601 226 594 226 588 c 0
 226 579 226 571 226 564 c 0
 226 374 220 218 220 36 c 0
 220 23 208 11 195 11 c 0
 182 11 170 23 170 36 c 0
 170 218 176 374 176 564 c 0
 176 572 176 579 176 588 c 0
 176 593 178 599 176 603 c 0
 171 612 172 616 163 628 c 0
 143 655 111 682 87 706 c 0
 78 715 70 724 64 733 c 0
 61 737 60 741 60 746 c 0
 60 759 72 771 85 771 c 0
 93 771 102 767 106 760 c 0
 113 749 132 733 144 721 c 0
 154 711 164 701 175 690 c 1
 174 723 176 756 167 774 c 0
 166 776 166 778 166 780 c 0
 166 793 178 805 191 805 c 0
 202 805 212 797 215 787 c 0
 222 759 225 723 226 687 c 1
 241 707 270 749 281 760 c 2
 299 778 l 2
 304 783 311 785 317 785 c 0
EndSplineSet
Validated: 1
EndChar

StartChar: S
Encoding: 83 83 18
Width: 538
Flags: W
HStem: 5 54<183.192 363.694> 167 53<80.5156 132.582> 226 74<227.629 268.487> 376 70<243.915 288.121> 631 54<144.623 307.656>
VStem: 213 70<239.441 287.226> 231 68<386.879 437.315> 461 52<168.474 423.523>
LayerCount: 3
Fore
SplineSet
189 821 m 0xf9
 204 821 215 809 215 794 c 0
 215 789 214 784 211 780 c 0
 191 744 163 704 144 669 c 1
 169 674 209 685 235 685 c 0
 342 685 434 585 466 502 c 0
 498 423 513 350 513 284 c 0
 513 132 429 5 280 5 c 0
 250 5 217 11 184 23 c 0
 134 41 82 72 31 119 c 0
 25 124 22 132 22 139 c 0
 22 147 24 150 26 155 c 2
 35 174 l 2
 36 175 37 177 39 179 c 0
 56 199 77 214 101 220 c 0
 103 220 105 220 107 220 c 0
 121 220 133 208 133 193 c 0
 133 181 124 170 113 167 c 0
 102 164 91 158 80 146 c 1
 122 111 163 88 200 74 c 0
 229 64 256 59 281 59 c 0
 330 59 371 78 402 110 c 0
 438 148 461 208 461 285 c 0
 461 342 448 408 419 481 c 0
 392 545 316 631 235 631 c 0
 209 631 155 613 125 613 c 2
 109 613 l 2
 100 613 90 614 85 619 c 0
 78 626 81 642 81 650 c 0
 81 659 84 667 86 672 c 0
 107 714 143 766 167 808 c 0
 172 815 180 821 189 821 c 0xf9
231 421 m 0xfb
 231 434 243 446 256 446 c 0
 267 446 277 438 282 432 c 2
 294 416 l 2
 297 412 299 406 299 401 c 0
 299 388 287 376 274 376 c 0
 266 376 259 380 254 386 c 2
 247 396 l 1
 239 401 231 410 231 421 c 0xfb
283 251 m 0xfd
 283 238 271 226 258 226 c 0
 251 226 244 230 239 235 c 2
 226 250 l 1
 220 254 213 262 213 274 c 0
 213 289 224 300 238 300 c 0
 251 300 258 291 264 283 c 2
 277 268 l 2
 281 263 283 257 283 251 c 0xfd
EndSplineSet
Validated: 1
EndChar

StartChar: T
Encoding: 84 84 19
Width: 466
Flags: W
HStem: 8 50<172.465 306.69>
VStem: 44 50<141.02 435.657> 257 51<691 780.906> 367 50<145.815 533.658>
LayerCount: 3
Fore
SplineSet
95 214 m 0
 99 139 158 58 245 58 c 0
 248 58 250 58 253 58 c 0
 337 63 356 153 362 235 c 0
 365 280 367 320 367 362 c 0
 367 386 366 410 365 436 c 0
 362 488 345 560 314 587 c 0
 304 596 293 601 277 601 c 0
 276 601 275 601 273 601 c 0
 184 596 134 492 112 423 c 1
 107 359 94 312 94 246 c 0
 94 236 94 225 95 214 c 0
255 8 m 0
 252 8 249 8 245 8 c 0
 133 8 51 109 45 211 c 0
 44 223 44 234 44 245 c 0
 44 316 57 363 62 430 c 0
 62 432 62 433 63 435 c 0
 86 509 139 620 237 646 c 1
 211 671 178 698 162 714 c 0
 153 723 152 725 146 734 c 0
 143 738 142 742 142 747 c 0
 142 760 154 772 167 772 c 0
 175 772 184 768 188 761 c 0
 195 750 214 734 226 722 c 0
 236 712 246 702 257 691 c 1
 256 724 258 757 249 775 c 0
 248 777 248 779 248 781 c 0
 248 794 260 806 273 806 c 0
 284 806 294 798 297 788 c 0
 304 760 307 724 308 688 c 1
 323 708 352 750 363 761 c 2
 381 779 l 2
 386 784 393 786 399 786 c 0
 412 786 424 774 424 761 c 0
 424 755 422 749 417 744 c 2
 399 726 l 1
 399 726 384 706 369 686 c 0
 358 672 336 657 315 644 c 1
 384 617 410 523 415 439 c 0
 416 413 417 387 417 362 c 0
 417 319 415 277 412 231 c 0
 404 121 368 14 255 8 c 0
EndSplineSet
Validated: 1
EndChar

StartChar: U
Encoding: 85 85 20
Width: 550
Flags: W
HStem: 150 62<100.55 266.968> 157 48<101.893 270 322 464>
VStem: 270 50<9.73096 152 204 304.62> 278 50<5.30167 151.314>
LayerCount: 3
Fore
SplineSet
270 204 m 1xa0
 270 205 270 207 270 209 c 0
 270 219 269 233 269 247 c 0
 269 275 272 303 288 305 c 0
 289 305 290 306 291 306 c 0
 303 305 317 296 319 283 c 0
 319 282 319 281 319 280 c 2
 320 202 l 1
 355 202 407 205 449 205 c 0
 454 205 459 205 464 205 c 1x60
 406 395 368 550 293 718 c 1
 286 704 279 690 275 676 c 0
 218 487 166 398 99 212 c 1
 161 211 205 205 270 204 c 1xa0
56 237 m 0
 122 422 172 503 227 690 c 0
 237 723 254 752 266 786 c 0
 270 796 277 802 286 803 c 0
 295 804 305 801 310 792 c 0
 417 610 444 412 519 198 c 0
 521 193 523 190 523 183 c 0
 523 171 516 160 503 158 c 2
 499 157 l 1
 456 157 383 152 334 152 c 0
 330 152 326 152 322 152 c 1
 323 144 l 2
 325 132 328 95 328 78 c 0
 328 76 328 74 328 73 c 0
 328 70 328 65 328 59 c 0
 328 48 328 35 328 28 c 0
 328 16 325 6 313 4 c 2
 309 4 l 1
 289 4 281 22 278 42 c 0x50
 277 50 277 59 277 66 c 0
 277 87 273 136 270 153 c 1
 268 153 265 153 262 153 c 0
 238 153 198 150 159 150 c 0xa0
 102 150 47 157 42 189 c 2
 42 194 l 1
 42 207 52 225 56 237 c 0
EndSplineSet
EndChar

StartChar: V
Encoding: 86 86 21
Width: 420
Flags: W
VStem: 73 50<126.594 749.579> 79 50<50.1465 343.598 538.203 780.459> 274 54<60.0306 519.522> 275 45<301.222 695.461>
LayerCount: 3
Fore
SplineSet
79 74 m 2x40
 81 176 l 1
 78 228 73 295 73 346 c 0
 73 483 77 619 77 756 c 0
 77 769 89 781 102 781 c 0
 115 781 127 769 127 756 c 0
 127 619 123 483 123 346 c 0x80
 123 298 131 228 131 176 c 1
 129 74 l 2
 129 58 117 50 104 50 c 0
 92 50 79 58 79 74 c 2x40
328 86 m 0x20
 328 73 322 57 309 57 c 0
 303 57 296 59 291 64 c 2
 281 74 l 2
 275 80 274 90 274 101 c 0x20
 274 110 275 120 275 129 c 0
 275 183 275 239 275 295 c 0
 275 385 274 480 270 559 c 0
 267 607 263 648 257 678 c 0
 252 702 245 719 242 723 c 0
 239 727 237 733 237 738 c 0
 237 751 249 763 262 763 c 0
 270 763 277 759 282 753 c 0
 294 737 300 715 306 688 c 0
 312 654 317 611 320 562 c 0x10
 324 482 325 387 325 297 c 0
 325 240 325 183 325 129 c 0
 325 110 328 101 328 86 c 0x20
EndSplineSet
EndChar

StartChar: W
Encoding: 87 87 22
Width: 596
Flags: HW
HStem: 222 72<128.146 172.854 278.1 324.9> 554 66<278.433 327.323 419.204 463.804>
VStem: 123 55<222.782 293.223> 275 53<557.18 617.301> 275 53<219.375 292.584> 421 50<550.214 571 598 616.591>
LayerCount: 3
Fore
SplineSet
126 25 m 0xe4
 113 25 101 37 101 50 c 0
 101 59 106 67 113 72 c 2
 161 100 l 2
 175 108 200 115 234 127 c 0
 301 151 393 183 454 217 c 0
 465 222 473 228 477 231 c 1
 475 248 465 266 445 286 c 0
 365 366 171 435 89 517 c 0
 65 541 47 569 47 602 c 0
 47 615 57 623 64 630 c 0
 134 700 231 741 303 805 c 0
 308 809 314 811 320 811 c 0
 333 811 345 799 345 786 c 0
 345 779 342 772 337 767 c 0
 263 703 164 660 98 593 c 1
 101 581 109 568 124 553 c 0
 159 518 224 481 292 444 c 0
 362 406 434 368 480 321 c 0
 507 294 527 263 527 226 c 0
 527 211 519 203 513 197 c 0
 504 188 492 181 478 173 c 0
 415 138 319 105 251 80 c 0
 220 69 195 60 185 56 c 1
 139 28 l 2
 135 26 130 25 126 25 c 0xe4
269 595 m 0
 269 609 281 620 294 620 c 0
 310 620 317 608 324 600 c 0
 331 596 335 587 335 579 c 0
 335 566 324 554 310 554 c 0
 293 554 287 567 280 575 c 0
 274 579 269 587 269 595 c 0
177 252 m 2
 177 250 178 248 178 246 c 0
 178 231 165 222 152 222 c 0
 141 222 131 228 128 241 c 2
 124 265 l 2
 124 267 123 269 123 271 c 0
 123 285 136 294 149 294 c 0
 160 294 170 288 173 275 c 2
 177 252 l 2
471 575 m 0
 471 562 459 550 446 550 c 0
 434 550 423 560 421 571 c 1
 414 590 l 2
 414 591 414 593 414 594 c 0
 414 607 426 619 439 619 c 0
 451 619 460 609 464 598 c 2
 471 579 l 2
 471 578 471 576 471 575 c 0
328 246 m 2xec
 328 245 328 244 328 243 c 0
 328 227 315 219 302 219 c 0
 291 219 280 225 278 240 c 2
 275 266 l 2
 275 267 275 268 275 269 c 0
 275 284 288 293 301 293 c 0
 312 293 323 286 325 272 c 2
 328 246 l 2xec
EndSplineSet
EndChar

StartChar: X
Encoding: 88 88 23
Width: 422
Flags: W
HStem: 768 50<129.39 297.418>
VStem: 166 50<311.171 620.734> 182 50<6.21448 247.267>
LayerCount: 3
Fore
SplineSet
49 784 m 0xc0
 49 798 61 809 74 809 c 0
 142 809 211 818 279 818 c 0
 314 818 356 817 356 781 c 0
 356 762 347 749 338 734 c 0
 312 692 264 634 218 608 c 1
 217 582 216 563 216 529 c 0xc0
 216 367 232 192 232 31 c 0
 232 18 220 6 207 6 c 0
 194 6 182 17 182 30 c 0xa0
 177 192 166 365 166 529 c 0
 166 564 167 583 168 610 c 1
 140 647 105 705 78 744 c 0
 72 751 59 764 56 767 c 0
 51 771 49 778 49 784 c 0xc0
210 662 m 0
 239 683 264 716 285 745 c 0
 291 753 296 761 299 768 c 1
 293 768 286 768 279 768 c 0
 228 768 178 763 127 760 c 1
 148 730 168 697 189 666 c 0
 198 654 l 0
 202 654 206 659 210 662 c 0
EndSplineSet
EndChar

StartChar: Y
Encoding: 89 89 24
Width: 634
Flags: W
HStem: 0 49<284.609 329.069> 798 20G<289 301.5>
LayerCount: 3
Fore
SplineSet
92 72 m 0
 79 72 67 84 67 97 c 0
 67 102 68 107 71 111 c 2
 79 123 l 2
 83 129 87 132 95 142 c 0
 108 159 124 181 144 193 c 1
 109 243 77 293 56 331 c 0
 47 347 42 356 37 371 c 0
 36 374 35 378 35 383 c 0
 35 404 47 417 53 431 c 0
 82 501 113 556 146 609 c 1
 143 611 141 613 139 615 c 2
 93 679 l 2
 90 684 88 689 88 694 c 0
 88 707 100 719 113 719 c 0
 121 719 129 715 133 709 c 2
 174 652 l 1
 205 700 237 747 270 802 c 0
 274 809 282 818 296 818 c 0
 307 818 314 811 319 805 c 0
 364 743 401 687 436 632 c 1
 441 638 447 640 453 645 c 0
 469 661 480 686 500 702 c 0
 504 705 510 707 515 707 c 0
 529 707 540 695 540 682 c 0
 540 674 536 667 531 662 c 0
 509 646 497 614 472 597 c 1
 464 586 l 1
 497 532 530 478 566 419 c 0
 568 415 570 411 570 406 c 0
 570 383 562 368 554 348 c 0
 537 306 510 257 481 208 c 1
 494 198 506 183 516 172 c 0
 517 171 517 170 518 169 c 2
 552 117 l 2
 555 113 556 108 556 104 c 0
 556 90 545 79 531 79 c 0
 523 79 514 83 510 90 c 2
 477 141 l 2
 470 148 462 158 454 165 c 1
 419 109 382 58 357 24 c 0
 348 11 334 0 313 0 c 0
 302 0 297 4 293 7 c 0
 287 11 282 15 277 20 c 0
 252 45 213 95 173 150 c 0
 172 150 171 150 170 150 c 2
 151 137 136 110 120 93 c 0
 113 84 107 72 92 72 c 0
519 401 m 1
 444 523 385 625 297 750 c 1
 226 633 156 548 99 411 c 0
 95 403 89 390 86 383 c 1
 89 377 96 364 105 347 c 0
 151 266 294 49 303 49 c 0
 311 49 317 53 321 59 c 0
 369 123 493 319 516 391 c 2
 519 401 l 1
EndSplineSet
EndChar

StartChar: Z
Encoding: 90 90 25
Width: 538
Flags: W
HStem: 3 54<176.306 360.563> 140 53<372.418 424.484> 629 54<293.647 380.742>
VStem: 27 52<166.474 421.523> 240 50<258.574 426.82 682 807.543> 250 50<255.18 402.078>
LayerCount: 3
Fore
SplineSet
474 594 m 0xf0
 474 581 462 569 449 569 c 0
 433 569 415 591 400 598 c 0
 377 609 333 629 305 629 c 0
 224 629 148 543 121 479 c 0
 92 406 79 340 79 283 c 0
 79 206 102 146 138 108 c 0
 169 76 210 57 259 57 c 0
 284 57 311 61 340 72 c 0
 377 86 383 84 425 119 c 1
 414 131 403 137 392 140 c 0
 381 143 372 154 372 166 c 0
 372 181 384 193 398 193 c 0
 400 193 402 193 404 193 c 0
 428 187 449 172 466 152 c 0
 468 150 469 148 470 147 c 2
 479 128 l 2
 481 123 483 120 483 112 c 0
 483 105 480 97 474 92 c 0
 423 45 406 39 356 21 c 0
 323 9 290 3 260 3 c 0
 111 3 27 130 27 282 c 0
 27 348 42 421 74 500 c 0
 99 566 163 642 241 671 c 1
 245 784 l 1
 245 800 258 809 271 809 c 0
 283 809 295 801 295 785 c 1
 291 682 l 1
 296 682 300 683 305 683 c 0
 359 683 401 645 444 630 c 0
 459 625 474 613 474 594 c 0xf0
265 427 m 0
 279 427 288 417 290 404 c 0xf8
 293 363 296 322 300 282 c 1
 300 280 l 2
 300 266 289 255 275 255 c 0
 262 255 251 265 250 278 c 0xf4
 246 318 243 359 240 400 c 1
 240 402 l 2xf8
 240 416 251 427 265 427 c 0
EndSplineSet
EndChar

StartChar: exclam
Encoding: 33 33 26
Width: 358
Flags: W
VStem: 151 50<348.85 592.786> 157 58<18.2459 185.125> 165 50<55.5859 402.394>
LayerCount: 3
Fore
SplineSet
315 558 m 0x00
 315 545 303 533 290 533 c 0
 283 533 275 536 270 542 c 0
 209 616 210 662 170 739 c 1
 140 680 123 589 83 538 c 0
 78 532 71 529 63 529 c 0
 50 529 38 541 38 554 c 0
 38 559 40 564 44 569 c 0
 50 577 57 592 65 609 c 0
 83 650 101 709 119 750 c 0
 126 766 132 778 143 789 c 0
 148 794 157 802 170 802 c 0
 187 802 199 789 205 778 c 0
 252 695 249 647 309 574 c 0
 313 569 315 564 315 558 c 0x00
185 17 m 0
 168 17 157 35 157 52 c 0x40
 157 57 159 63 162 67 c 0
 164 107 165 147 165 187 c 0x20
 165 314 151 443 151 568 c 0
 151 581 163 593 176 593 c 0
 189 593 201 582 201 569 c 0x80
 205 443 215 315 215 187 c 0x20
 215 138 213 89 210 40 c 0
 209 27 198 17 185 17 c 0
EndSplineSet
EndChar

StartChar: a
Encoding: 97 97 27
Width: 573
Flags: W
HStem: -1 53<160.062 346.157> 456 51<102.411 382.371> 797 20G<294.5 310>
VStem: 32 51<146.194 426.886> 267 57<696.511 808.751> 472 51<229.054 416.587>
LayerCount: 3
Fore
SplineSet
33 251 m 0
 32 265 32 280 32 295 c 0
 32 316 33 338 35 359 c 0
 42 420 39 465 56 521 c 0
 65 551 80 583 104 622 c 0
 126 659 178 676 222 690 c 0
 238 694 253 698 267 701 c 1
 267 707 267 716 267 723 c 0
 267 728 267 733 267 733 c 2
 271 772 l 2
 272 779 275 804 280 809 c 0
 285 814 291 817 298 817 c 0
 322 817 324 798 324 775 c 0
 324 769 324 762 324 756 c 1
 318 699 l 1
 430 676 523 538 523 428 c 1
 523 411 l 2
 523 363 517 311 510 260 c 0
 486 90 365 -1 251 -1 c 0
 144 -1 43 80 33 251 c 0
472 412 m 1
 409 424 321 456 254 456 c 0
 237 456 218 452 200 452 c 0
 169 452 122 445 92 429 c 1
 92 384 83 333 83 285 c 2
 83 247 l 2
 83 140 129 52 248 52 c 0
 407 52 412 110 459 254 c 0
 471 290 472 339 472 380 c 0
 472 415 472 386 472 412 c 1
100 487 m 1
 135 498 172 503 196 503 c 0
 215 503 235 507 253 507 c 0
 329 507 374 487 441 474 c 1
 455 470 l 1
 465 467 l 1
 446 547 379 638 302 651 c 1
 295 651 l 2
 282 651 260 648 237 641 c 0
 207 632 176 623 158 605 c 0
 156 603 136 578 135 577 c 0
 113 541 112 531 105 506 c 0
 103 500 102 494 100 487 c 1
EndSplineSet
EndChar

StartChar: b
Encoding: 98 98 28
Width: 538
Flags: W
HStem: 5 54<183.192 363.694> 167 53<80.5156 132.582> 631 54<144.623 307.656>
VStem: 240 50<257.18 404.078> 250 50<260.574 428.82> 461 52<168.474 423.523>
LayerCount: 3
Fore
SplineSet
275 429 m 0xec
 289 429 300 418 300 404 c 2
 300 402 l 1xec
 297 361 294 320 290 280 c 0
 289 267 278 257 265 257 c 0
 251 257 240 268 240 282 c 2
 240 284 l 1xf4
 244 324 247 365 250 406 c 0
 252 419 261 429 275 429 c 0xec
189 821 m 0
 204 821 215 809 215 794 c 0
 215 789 214 784 211 780 c 0
 191 744 163 704 144 669 c 1
 169 674 209 685 235 685 c 0
 342 685 434 585 466 502 c 0
 498 423 513 350 513 284 c 0
 513 132 429 5 280 5 c 0
 250 5 217 11 184 23 c 0
 134 41 82 72 31 119 c 0
 25 124 22 132 22 139 c 0
 22 147 24 150 26 155 c 2
 35 174 l 2
 36 175 37 177 39 179 c 0
 56 199 77 214 101 220 c 0
 103 220 105 220 107 220 c 0
 121 220 133 208 133 193 c 0
 133 181 124 170 113 167 c 0
 102 164 91 158 80 146 c 1
 122 111 163 88 200 74 c 0
 229 64 256 59 281 59 c 0
 330 59 371 78 402 110 c 0
 438 148 461 208 461 285 c 0
 461 342 448 408 419 481 c 0
 392 545 316 631 235 631 c 0
 209 631 155 613 125 613 c 2
 109 613 l 2
 100 613 90 614 85 619 c 0
 78 626 81 642 81 650 c 0
 81 659 84 667 86 672 c 0
 107 714 143 766 167 808 c 0
 172 815 180 821 189 821 c 0
EndSplineSet
EndChar

StartChar: c
Encoding: 99 99 29
Width: 568
Flags: W
HStem: 670 47<97 235.68 291 407.795>
VStem: 241 51<604.69 674 725 791.536>
LayerCount: 3
Fore
SplineSet
257 607 m 0
 248 611 241 620 241 630 c 2
 241 675 l 1
 202 675 141 670 97 670 c 1
 158 481 190 255 268 88 c 1
 275 102 281 117 285 131 c 0
 339 321 399 481 463 668 c 1
 401 668 356 674 291 674 c 1
 291 664 292 653 292 643 c 0
 292 624 286 604 269 604 c 0
 265 604 261 605 257 607 c 0
506 644 m 0
 443 458 384 306 333 118 c 0
 324 85 308 55 296 21 c 0
 293 12 283 3 273 3 c 0
 264 3 256 8 252 15 c 0
 142 195 126 465 42 676 c 0
 40 681 38 684 38 691 c 0
 38 704 45 717 61 717 c 0
 108 717 189 725 238 725 c 1
 234 741 234 753 234 769 c 0
 234 779 227 782 227 792 c 0
 227 805 238 817 252 817 c 0
 280 817 285 780 285 755 c 0
 285 734 286 741 290 724 c 1
 313 724 363 730 410 730 c 0
 466 730 519 722 519 687 c 0
 519 674 510 656 506 644 c 0
EndSplineSet
EndChar

StartChar: d
Encoding: 100 100 30
Width: 620
Flags: W
VStem: 111 50<264 294.787> 283 45<-20.7855 18.1088>
LayerCount: 3
Fore
SplineSet
328 4 m 0
 328 -9 316 -21 303 -21 c 0
 295 -21 288 -17 283 -11 c 0
 283 -11 231 57 185 125 c 0
 164 155 145 185 131 210 c 0
 122 227 111 242 111 264 c 0
 111 289 124 308 139 323 c 0
 166 350 205 369 235 384 c 0
 250 391 261 397 271 404 c 1
 266 427 250 443 232 461 c 0
 198 495 147 530 113 564 c 0
 100 577 84 592 84 616 c 0
 84 621 86 626 89 630 c 0
 129 690 154 784 206 836 c 0
 211 841 218 843 224 843 c 0
 237 843 249 831 249 818 c 0
 249 812 247 805 242 800 c 0
 203 760 170 668 137 613 c 1
 152 592 172 578 198 557 c 0
 236 526 283 490 308 445 c 0
 316 430 322 414 322 396 c 0
 322 383 314 375 310 371 c 0
 296 357 278 350 258 340 c 0
 228 325 193 306 175 288 c 0
 165 278 161 269 161 264 c 1
 165 254 l 1
 192 192 323 20 323 20 c 2
 326 16 328 9 328 4 c 0
348 228 m 0
 335 228 323 240 323 253 c 0
 323 266 333 275 340 282 c 0
 370 312 417 339 447 369 c 0
 463 385 473 401 476 415 c 1
 427 471 366 520 319 577 c 0
 315 582 313 587 313 593 c 0
 313 606 325 618 338 618 c 0
 345 618 352 615 357 609 c 0
 406 550 472 499 521 440 c 0
 525 435 527 430 527 424 c 0
 527 387 506 357 483 334 c 0
 463 314 440 297 419 282 c 0
 400 268 384 256 373 244 c 0
 367 236 360 228 348 228 c 0
EndSplineSet
EndChar

StartChar: e
Encoding: 101 101 31
Width: 510
Flags: W
HStem: 4 54<181.048 330.168> 305 62<238.91 285.09> 606 50<105 391> 757 50<149.779 328.957>
VStem: 55 50<656 712.996> 69 47<271.376 505.765> 398 43<194.294 510.668>
LayerCount: 3
Fore
SplineSet
290 330 m 0xf2
 290 316 279 305 265 305 c 0
 255 305 247 311 243 319 c 2
 237 331 l 2
 235 335 234 338 234 342 c 0
 234 356 245 367 259 367 c 0
 269 367 277 361 281 353 c 2
 287 341 l 2
 289 337 290 334 290 330 c 0xf2
69 496 m 0xf6
 69 503 85 513 91 513 c 0
 97 513 104 511 109 506 c 0
 114 501 116 495 116 489 c 0
 122 362 123 320 133 195 c 0
 137 146 155 106 178 83 c 0
 194 67 214 58 243 58 c 0
 245 58 247 58 249 57 c 0
 258 55 267 54 274 54 c 0
 283 54 292 55 299 58 c 0
 317 65 331 79 342 95 c 2
 379 148 l 1
 392 205 l 1
 398 334 l 1
 399 398 l 1
 398 413 398 422 398 432 c 0
 398 445 396 462 396 478 c 0
 396 492 397 504 404 511 c 0
 409 516 416 518 422 518 c 0
 428 518 435 516 440 511 c 0
 445 506 447 500 447 494 c 0
 447 472 448 450 448 429 c 0
 448 351 445 275 442 200 c 0
 442 198 441 197 441 195 c 2
 426 132 l 2
 425 129 425 127 423 124 c 2
 384 67 l 2
 368 43 345 22 316 11 c 0
 303 6 289 4 274 4 c 0
 263 4 252 5 240 8 c 0
 200 9 167 24 143 48 c 0
 108 83 91 134 83 188 c 0
 83 189 83 190 83 191 c 0
 79 254 69 363 69 462 c 0
 69 474 69 485 69 496 c 0xf6
105 656 m 1xfa
 391 659 l 1
 387 667 383 673 380 686 c 1
 374 698 366 707 359 714 c 0
 333 740 297 750 234 756 c 0
 228 757 223 757 218 757 c 0
 162 757 131 726 112 688 c 0
 106 674 105 673 105 664 c 0
 105 662 105 659 105 656 c 1xfa
416 609 m 2
 92 606 l 1
 88 604 81 606 77 606 c 0
 64 606 55 615 55 628 c 2
 55 631 l 2
 55 634 56 642 56 646 c 0
 56 655 55 657 55 668 c 0xfa
 55 688 63 701 69 713 c 0xf6
 95 764 143 807 218 807 c 0
 224 807 231 807 238 806 c 0
 302 800 356 788 395 749 c 0
 407 737 417 723 426 706 c 0
 427 703 429 700 429 697 c 0
 429 695 430 692 433 686 c 0
 436 680 442 669 442 655 c 0
 442 652 442 649 441 646 c 1
 441 634 l 2
 441 620 430 609 416 609 c 2
EndSplineSet
EndChar

StartChar: f
Encoding: 102 102 32
Width: 510
Flags: W
HStem: 760 50<142.847 340>
LayerCount: 3
Fore
SplineSet
95 502 m 1
 263 98 l 1
 297 193 313 239 356 338 c 0
 362 352 394 453 396 484 c 1
 340 529 285 573 232 617 c 1
 179 578 131 539 105 514 c 0
 101 509 97 505 95 502 c 1
444 781 m 0
 444 773 439 765 433 760 c 2
 433 760 355 707 273 648 c 1
 325 605 378 562 433 519 c 0
 442 511 446 500 446 486 c 0
 446 445 407 333 400 316 c 0
 353 202 338 141 287 25 c 0
 283 16 274 10 264 10 c 0
 254 10 245 16 241 25 c 2
 44 493 l 2
 43 496 42 499 42 503 c 0
 42 514 46 521 51 527 c 0
 56 534 62 541 70 549 c 0
 96 576 142 613 192 650 c 1
 148 687 105 724 61 762 c 0
 55 767 52 774 52 781 c 0
 52 787 54 794 59 799 c 0
 65 804 78 806 78 806 c 2
 79 806 80 806 81 806 c 0
 97 806 167 810 187 810 c 0
 249 810 357 806 419 806 c 0
 432 806 444 794 444 781 c 0
142 758 m 1
 172 732 203 706 233 681 c 1
 272 709 310 736 340 757 c 1
 292 758 227 760 187 760 c 0
 182 760 160 759 142 758 c 1
EndSplineSet
EndChar

StartChar: g
Encoding: 103 103 33
Width: 552
Flags: HW
LayerCount: 3
Fore
SplineSet
268 753 m 1
 207 687 155 639 92 576 c 1
 147 527 190 498 252 448 c 1
 335 388 417 333 490 261 c 0
 496 255 497 248 497 242 c 0
 497 232 493 228 489 224 c 0
 488 222 486 219 483 217 c 0
 476 209 466 199 453 186 c 0
 409 142 333 68 283 27 c 0
 275 21 269 16 263 12 c 0
 260 10 253 6 244 6 c 0
 239 6 233 7 226 13 c 0
 155 84 96 158 35 230 c 0
 31 235 29 240 29 246 c 0
 29 252 31 259 36 263 c 0
 91 320 153 368 211 417 c 1
 156 457 99 501 40 557 c 0
 34 563 32 570 32 575 c 0
 32 581 35 587 36 589 c 0
 37 590 38 591 38 592 c 0
 44 599 50 605 61 615 c 0
 128 685 181 729 247 805 c 0
 252 810 259 813 266 813 c 0
 272 813 277 811 282 807 c 0
 360 742 484 628 494 618 c 0
 496 615 496 616 499 611 c 0
 499 610 501 607 501 600 c 0
 501 587 490 575 476 575 c 0
 464 575 461 580 455 585 c 0
 452 588 446 594 437 602 c 0
 399 640 326 704 268 753 c 1
248 63 m 1
 298 105 374 177 418 221 c 0
 425 228 432 236 438 241 c 1
 382 294 319 339 252 387 c 1
 199 340 140 295 88 245 c 1
 138 185 190 121 248 63 c 1
EndSplineSet
EndChar

StartChar: h
Encoding: 104 104 34
Width: 550
Flags: W
HStem: 6 51<184.023 365.969> 211 46<98 434> 378 50<28.492 485.804> 552 59<101 391.621> 564 50<234.891 425> 764 50<184.988 330.305>
VStem: 423 57<614 677.396> 434 45<117.091 209.612>
LayerCount: 3
Fore
SplineSet
254 428 m 0xe4
 302 428 368 430 415 430 c 0
 456 430 486 425 486 403 c 0
 486 391 478 378 462 378 c 0
 406 378 319 378 262 378 c 0
 210 378 110 378 57 380 c 0
 38 381 28 390 28 406 c 0
 28 426 42 430 62 430 c 0
 114 430 206 428 254 428 c 0xe4
423 629 m 0xee
 423 631 423 632 423 634 c 0
 418 657 409 670 395 684 c 0
 392 687 389 690 386 693 c 0
 368 715 341 737 317 750 c 0
 298 760 261 764 230 764 c 0
 224 764 217 762 208 758 c 0
 184 746 157 717 143 694 c 0
 128 670 116 637 101 611 c 1xf6
 425 614 l 1
 424 618 423 624 423 629 c 0xee
473 641 m 0
 476 626 480 616 480 598 c 0
 480 579 472 564 454 564 c 0xee
 409 564 266 552 163 552 c 0
 106 552 61 555 50 566 c 0
 45 571 45 570 45 576 c 0
 45 591 50 608 56 623 c 0
 85 695 117 768 186 802 c 0
 200 809 214 814 230 814 c 0
 271 814 313 809 341 794 c 0
 370 778 401 753 423 726 c 1
 447 704 465 679 473 641 c 0
380 257 m 0
 397 257 418 256 438 256 c 0
 440 256 440 256 442 256 c 0
 455 256 469 255 472 245 c 0
 477 226 479 209 479 192 c 0xe5
 479 73 367 6 266 6 c 0
 242 6 219 9 198 17 c 0
 121 45 71 102 50 189 c 0
 47 200 47 202 46 206 c 0
 44 210 40 223 40 227 c 0
 40 249 62 254 84 254 c 2
 276 254 l 2
 317 255 346 257 380 257 c 0
285 208 m 2
 98 204 l 1
 116 130 154 87 217 62 c 0
 233 58 251 57 270 57 c 0
 325 57 370 72 399 101 c 0
 420 122 434 151 434 195 c 0
 434 201 434 205 434 209 c 0
 417 210 402 211 389 211 c 0
 355 211 329 209 285 208 c 2
EndSplineSet
EndChar

StartChar: i
Encoding: 105 105 35
Width: 634
Flags: W
HStem: 0 49<284.609 329.069> 373 68<260.972 321.705> 798 20G<289 301.5>
VStem: 257 67<377.38 439.45>
LayerCount: 3
Fore
SplineSet
519 401 m 1
 444 523 385 625 297 750 c 1
 226 633 156 548 99 411 c 0
 95 403 89 390 86 383 c 1
 89 377 96 364 105 347 c 0
 151 266 294 49 303 49 c 0
 311 49 317 53 321 59 c 0
 369 123 493 319 516 391 c 1
 519 401 l 1
296 818 m 0
 307 818 314 811 319 805 c 0
 421 664 483 554 566 419 c 0
 568 415 570 411 570 406 c 0
 570 383 562 368 554 348 c 0
 511 243 410 95 357 24 c 0
 348 11 334 0 313 0 c 0
 302 0 297 4 293 7 c 0
 287 11 282 15 277 20 c 0
 224 73 108 238 56 331 c 0
 47 347 42 356 37 371 c 0
 36 374 35 378 35 383 c 0
 35 404 47 417 53 431 c 0
 117 585 192 671 270 802 c 0
 274 809 282 818 296 818 c 0
257 409 m 0
 257 428 274 441 288 441 c 0
 290 441 291 441 293 441 c 0
 307 441 324 430 324 413 c 0
 324 393 317 373 295 373 c 0
 280 373 269 384 261 395 c 0
 258 399 257 404 257 409 c 0
EndSplineSet
EndChar

StartChar: j
Encoding: 106 106 36
Width: 510
Flags: W
HStem: 4 50<188.749 326.631> 305 62<238.91 285.09> 579 50<175.42 294.981> 753 50<103 380>
VStem: 69 47<271.376 512.803> 398 50<186.496 517.677>
LayerCount: 3
Fore
SplineSet
422 518 m 0
 435 518 447 507 447 494 c 0
 447 472 448 450 448 429 c 0
 448 351 445 275 442 200 c 0
 442 198 441 197 441 195 c 2
 426 132 l 2
 425 129 425 127 423 124 c 2
 384 67 l 2
 362 34 328 4 274 4 c 0
 263 4 252 5 240 8 c 0
 138 11 96 99 83 188 c 0
 83 189 83 190 83 191 c 0
 79 254 69 363 69 462 c 2
 69 496 l 2
 69 503 85 513 91 513 c 0
 104 513 116 502 116 489 c 0
 122 362 123 320 133 195 c 0
 137 146 155 106 178 83 c 0
 194 67 214 58 243 58 c 0
 253 58 266 54 274 54 c 0
 309 54 327 73 342 95 c 2
 379 148 l 1
 392 205 l 1
 398 334 l 1
 399 398 l 1
 398 413 398 422 398 432 c 0
 398 445 396 462 396 478 c 0
 396 500 401 518 422 518 c 0
290 330 m 0
 290 316 279 305 265 305 c 0
 255 305 247 311 243 319 c 2
 237 331 l 2
 235 335 234 338 234 342 c 0
 234 356 245 367 259 367 c 0
 269 367 277 361 281 353 c 2
 287 341 l 2
 289 337 290 334 290 330 c 0
35 778 m 0
 35 791 47 803 60 803 c 2
 124 803 l 2
 142 803 159 804 178 804 c 2
 233 804 l 2
 280 804 328 807 375 807 c 0
 382 807 390 807 396 806 c 0
 398 806 401 807 405 807 c 0
 412 807 420 807 428 799 c 0
 435 792 436 783 436 777 c 0
 436 755 426 734 414 713 c 0
 389 668 345 619 299 594 c 0
 283 585 266 579 248 579 c 0
 143 579 97 656 62 723 c 0
 52 741 35 758 35 778 c 0
103 753 m 1
 134 695 162 629 248 629 c 0
 254 629 264 632 275 638 c 0
 317 661 361 712 380 757 c 1
 378 757 377 757 375 757 c 0
 328 757 281 754 233 754 c 2
 178 754 l 2
 160 754 142 753 124 753 c 2
 103 753 l 1
EndSplineSet
EndChar

StartChar: k
Encoding: 107 107 37
Width: 524
Flags: W
HStem: 6 51<184.023 365.969> 211 46<98 434> 370 62<58.2842 110.363 234.176 283.992 399.106 449.518> 552 59<102.09 391.621> 564 50<234.891 425> 764 50<184.988 330.305>
VStem: 52 60<387.191 429.205> 231 54<374.008 435.513> 396 58<372.396 432.397> 423 57<614 677.396> 434 45<117.091 209.612>
LayerCount: 3
Fore
SplineSet
285 208 m 2xe720
 98 204 l 1
 116 130 154 87 217 62 c 0
 233 58 251 57 270 57 c 0
 325 57 370 72 399 101 c 0
 420 122 434 151 434 195 c 2
 434 209 l 1
 417 210 402 211 389 211 c 0
 355 211 329 209 285 208 c 2xe720
380 257 m 0
 397 257 418 256 438 256 c 2
 442 256 l 2
 455 256 469 255 472 245 c 0
 477 226 479 209 479 192 c 0
 479 73 367 6 266 6 c 0
 242 6 219 9 198 17 c 0
 121 45 71 102 50 189 c 0
 47 200 47 202 46 206 c 0
 44 210 40 223 40 227 c 0
 40 249 62 254 84 254 c 2
 276 254 l 1
 317 255 346 257 380 257 c 0
163 552 m 0xf780
 162 552 160 552 159 552 c 0
 101 552 45 552 45 576 c 0
 45 591 50 608 56 623 c 0
 85 695 117 768 186 802 c 0
 200 809 214 814 230 814 c 0
 271 814 313 809 341 794 c 0
 370 778 401 753 423 726 c 1
 447 704 465 679 473 641 c 0
 476 626 480 616 480 598 c 0xf740
 480 579 472 564 454 564 c 0xef80
 409 564 266 552 163 552 c 0xf780
423 629 m 2
 423 634 l 1
 418 657 409 670 395 684 c 0
 392 687 389 690 386 693 c 0
 368 715 341 737 317 750 c 0
 298 760 261 764 230 764 c 0
 224 764 217 762 208 758 c 0
 184 746 157 717 143 694 c 0
 128 670 116 637 101 611 c 1xf740
 425 614 l 1xef40
 424 618 423 624 423 629 c 2
52 407 m 0
 52 420 64 432 77 432 c 0
 92 432 104 421 108 413 c 0
 113 408 112 401 112 395 c 0
 112 382 100 370 87 370 c 0
 74 370 64 382 58 387 c 0
 54 391 52 400 52 407 c 0
258 436 m 0
 273 436 284 426 284 410 c 0
 285 407 285 401 285 398 c 0
 285 385 273 373 260 373 c 0
 244 373 231 390 231 406 c 0
 231 422 243 436 258 436 c 0
454 395 m 0xe780
 454 382 442 370 429 370 c 0
 412 370 396 388 396 406 c 2
 396 410 l 2
 396 423 408 435 421 435 c 0
 433 435 444 426 446 414 c 1
 451 409 454 402 454 395 c 0xe780
EndSplineSet
EndChar

StartChar: l
Encoding: 108 108 38
Width: 598
Flags: W
HStem: 635 62<270.787 494.39> 642 48<144 437.829>
LayerCount: 3
Fore
SplineSet
230 776 m 0x80
 218 754 144 686 144 686 c 1
 144 686 222 688 268 690 c 0x40
 328 693 352 697 442 697 c 0
 498 697 551 689 551 654 c 0
 551 641 548 611 544 599 c 0
 516 515 376 9 302 9 c 0
 293 9 285 14 281 21 c 0
 172 202 114 551 77 628 c 0
 75 633 70 651 70 658 c 0
 70 672 76 687 90 689 c 1
 111 735 184 812 207 819 c 0
 209 820 211 820 213 820 c 0
 225 820 236 810 238 801 c 0
 240 792 235 785 230 776 c 0x80
273 642 m 1
 217 641 173 637 129 637 c 1
 190 448 219 261 297 94 c 1
 304 108 410 372 414 386 c 0
 468 576 431 448 495 635 c 1x80
 420 635 354 642 286 642 c 2
 273 642 l 1
EndSplineSet
EndChar

StartChar: m
Encoding: 109 109 39
Width: 550
Flags: W
HStem: 555 58<101.687 261.531> 566 48<309.36 425> 764 50<184.988 330.305>
VStem: 423 57<614 677.396>
LayerCount: 3
Fore
SplineSet
308 557 m 0x70
 305 556 304 554 304 551 c 0
 304 542 313 526 314 525 c 2
 338 460 l 2
 349 428 363 385 378 356 c 0
 405 307 444 258 471 204 c 0
 473 200 474 195 474 192 c 0
 474 179 466 171 462 167 c 0
 446 151 410 133 392 119 c 0
 359 84 325 56 292 21 c 0
 285 13 274 10 265 10 c 0
 243 10 229 21 215 32 c 0
 174 64 129 117 100 155 c 0
 91 166 84 176 79 184 c 0
 74 192 69 197 69 209 c 0
 69 239 80 268 94 294 c 0
 118 337 150 374 178 412 c 0
 198 438 236 506 257 539 c 0
 258 539 265 554 262 554 c 0
 252 555 242 555 234 555 c 0xb0
 208 555 187 552 163 552 c 0
 103 552 45 552 45 576 c 0
 45 591 50 608 56 623 c 0
 85 695 117 768 186 802 c 0
 200 809 214 814 230 814 c 0
 271 814 313 809 341 794 c 0
 370 778 401 753 423 726 c 1
 447 704 465 679 473 641 c 0
 476 626 480 616 480 598 c 0
 480 579 472 564 454 564 c 0
 441 564 419 566 393 566 c 0
 367 566 337 564 308 557 c 0x70
119 213 m 1
 141 178 179 135 211 103 c 0
 229 85 243 71 262 62 c 1
 293 94 325 121 356 154 c 0
 360 158 364 161 369 164 c 0
 383 174 405 187 418 196 c 1
 393 242 358 288 334 333 c 0
 317 366 301 409 291 443 c 1
 278 476 l 1
 259 445 235 403 218 382 c 0
 192 346 158 307 138 270 c 0
 127 250 121 230 119 213 c 1
423 629 m 2
 423 634 l 1
 418 657 409 670 395 684 c 0
 392 687 389 690 386 693 c 0
 368 715 341 737 317 750 c 0
 298 760 261 764 230 764 c 0
 224 764 217 762 208 758 c 0
 184 746 157 717 143 694 c 0
 128 670 116 637 101 611 c 1
 288 613 l 0xb0
 425 614 l 1x70
 424 618 423 624 423 629 c 2
EndSplineSet
EndChar

StartChar: n
Encoding: 110 110 40
Width: 482
Flags: W
VStem: 64 50<509.725 573.051> 204 50<353.463 413.345> 216 50<703.584 783.786> 276 50<513.72 607.792>
LayerCount: 3
Fore
SplineSet
256 31 m 0xd0
 256 18 244 6 231 6 c 0
 218 6 210 16 203 23 c 0
 150 76 103 153 51 205 c 0
 46 210 44 217 44 223 c 0
 44 246 56 264 70 278 c 0
 102 310 162 332 192 362 c 0
 201 371 204 378 204 385 c 0xd0
 204 388 201 395 191 405 c 0
 165 431 120 455 92 483 c 0
 78 497 64 515 64 539 c 0
 64 554 70 567 77 578 c 0
 109 630 174 667 205 720 c 0
 213 733 216 744 216 755 c 2
 216 759 l 2
 216 772 228 784 241 784 c 0
 254 784 266 772 266 759 c 2
 266 755 l 2xb0
 266 733 258 713 248 695 c 0
 222 651 180 617 145 582 c 0
 133 570 124 560 119 552 c 0
 115 545 114 540 114 539 c 0
 114 536 117 528 127 518 c 0
 153 492 199 469 227 441 c 0
 241 427 254 409 254 385 c 0
 254 361 241 341 227 327 c 0
 194 294 135 273 105 243 c 0
 100 238 98 234 96 231 c 0
 145 179 190 107 239 58 c 0
 246 51 256 44 256 31 c 0xd0
418 77 m 0
 418 64 406 52 393 52 c 0
 383 52 375 58 371 66 c 2
 364 79 l 1
 334 111 295 150 264 185 c 0
 250 201 240 212 232 228 c 0
 230 231 228 235 228 243 c 0
 228 266 240 284 253 297 c 0
 274 318 302 333 327 347 c 0
 350 360 370 370 378 380 c 1
 372 402 355 420 339 441 c 0
 324 461 307 483 294 506 c 0
 284 524 276 544 276 565 c 0
 276 612 308 641 334 665 c 0
 354 684 373 702 387 727 c 0
 391 734 400 740 409 740 c 0
 422 740 434 728 434 715 c 0
 434 711 433 707 431 703 c 0
 409 664 382 642 354 614 c 0
 335 595 326 582 326 565 c 0
 326 557 330 545 338 530 c 0
 357 496 394 457 414 422 c 0
 421 409 428 395 428 379 c 0
 428 362 419 350 411 342 c 0
 381 312 317 290 289 262 c 0
 283 256 280 251 279 247 c 0
 309 202 369 149 404 110 c 0
 405 108 406 106 407 104 c 2
 415 88 l 2
 417 84 418 81 418 77 c 0
EndSplineSet
EndChar

StartChar: o
Encoding: 111 111 41
Width: 573
Flags: W
HStem: -1 53<160.062 346.157> 301 85<258.94 295.719> 797 20G<294.5 310>
VStem: 32 51<146.194 502.779> 254 50<310.141 382.762> 267 57<696.511 808.751> 472 51<229.054 508.117>
LayerCount: 3
Fore
SplineSet
33 251 m 0xf6
 32 265 32 280 32 295 c 0
 32 316 33 338 35 359 c 0
 42 420 39 465 56 521 c 0
 65 551 80 583 104 622 c 0
 126 659 178 676 222 690 c 0
 238 694 253 698 267 701 c 1
 267 733 l 1
 271 772 l 2
 272 779 275 804 280 809 c 0
 285 814 291 817 298 817 c 0
 322 817 324 798 324 775 c 0
 324 769 324 762 324 756 c 2
 318 699 l 1
 430 676 523 538 523 428 c 2
 523 411 l 2
 523 363 517 311 510 260 c 0
 486 90 365 -1 251 -1 c 0
 144 -1 43 80 33 251 c 0xf6
135 577 m 0
 83 525 83 389 83 285 c 2
 83 247 l 2
 83 140 129 52 248 52 c 0
 407 52 412 110 459 254 c 0
 471 290 472 339 472 380 c 2
 472 412 l 2
 472 436 470 448 465 467 c 0
 446 547 379 638 302 651 c 1
 295 651 l 2
 282 651 260 648 237 641 c 0
 207 632 176 623 158 605 c 0
 156 603 136 578 135 577 c 0
262 374 m 0
 265 380 270 384 277 386 c 0
 284 388 290 386 296 383 c 0
 305 378 309 368 308 359 c 2
 304 320 l 2xfa
 304 316 303 313 301 310 c 0
 298 304 302 316 297 311 c 0
 292 306 273 298 267 301 c 0xf6
 258 306 253 316 254 325 c 2xfa
 259 365 l 2
 259 369 260 371 262 374 c 0
EndSplineSet
EndChar

StartChar: p
Encoding: 112 112 42
Width: 540
Flags: W
HStem: 14 50<209.825 358.511> 209 49<116 304.231> 220 58<228.87 438.541> 285 51<179.876 377.63> 465 46<110 456.205> 754 49<124 413>
VStem: 61 57<148.909 208.811> 457 45<399.174 457.612>
LayerCount: 3
Fore
SplineSet
118 194 m 2xdf
 118 189 l 1
 124 166 134 154 148 140 c 0
 151 137 154 134 157 131 c 0
 176 109 203 88 227 76 c 0
 244 67 275 64 304 64 c 0
 307 64 311 64 315 64 c 0
 321 64 328 67 337 71 c 0
 361 84 387 113 400 136 c 0
 414 160 426 194 440 220 c 1xbf
 116 209 l 1
 117 205 118 199 118 194 c 2xdf
376 278 m 0
 377 278 379 278 380 278 c 0xbf
 394 278 407 279 420 279 c 0
 461 279 494 275 495 257 c 0
 495 242 491 224 485 209 c 0
 458 136 428 63 360 27 c 0
 346 20 332 14 316 14 c 0
 312 14 308 14 304 14 c 0
 267 14 230 18 205 31 c 0
 176 46 144 71 121 97 c 1
 96 118 78 143 69 181 c 0
 66 196 61 206 61 224 c 0
 61 243 68 258 86 258 c 0xdf
 131 259 273 275 376 278 c 0
403 505 m 0
 412 505 441 504 461 504 c 2
 465 504 l 2
 478 504 492 503 495 493 c 0
 500 474 502 457 502 440 c 0
 502 321 376 285 275 285 c 0
 251 285 228 288 207 296 c 0
 130 324 83 359 62 446 c 0
 59 457 59 459 58 463 c 0
 56 467 52 480 52 484 c 0
 52 506 74 511 96 511 c 2
 288 511 l 1
 291 511 293 511 296 511 c 0
 334 511 371 505 403 505 c 0
297 465 m 2
 110 461 l 1
 128 387 160 357 226 341 c 0
 242 337 260 336 279 336 c 0
 334 336 379 351 408 380 c 0
 429 401 457 399 457 443 c 2
 457 457 l 1
 440 458 425 459 412 459 c 0
 380 459 346 465 306 465 c 0
 303 465 300 465 297 465 c 2
413 804 m 0
 428 804 435 807 447 807 c 0
 473 807 495 793 495 772 c 0
 495 750 476 736 461 724 c 0
 445 711 426 699 404 689 c 0
 364 670 342 651 302 632 c 0
 290 626 277 615 249 615 c 0
 227 615 208 626 191 636 c 0
 138 666 69 723 44 760 c 0
 41 764 40 768 40 772 c 0
 40 801 84 803 122 803 c 0
 127 803 132 803 136 803 c 0
 221 803 327 804 413 804 c 0
413 755 m 1
 396 755 378 755 360 755 c 0
 289 755 211 754 142 754 c 0
 136 754 130 754 124 754 c 1
 152 725 189 697 226 676 c 0
 237 670 245 666 251 664 c 0
 255 666 265 671 271 674 c 0
 310 692 331 711 373 731 c 0
 388 738 402 747 413 755 c 1
EndSplineSet
EndChar

StartChar: q
Encoding: 113 113 43
Width: 620
Flags: W
HStem: 0 49<284.609 329.831> 371 50<104.406 506> 374 50<104 319.342> 798 20G<289 301.5>
LayerCount: 3
Fore
SplineSet
296 818 m 0xd0
 307 818 314 811 319 805 c 0
 421 664 483 554 566 419 c 0
 568 415 570 411 570 406 c 0
 570 383 562 368 554 348 c 0
 511 243 410 95 357 24 c 0
 348 11 334 0 313 0 c 0
 302 0 297 4 293 7 c 0
 287 11 282 15 277 20 c 0
 224 73 108 238 56 331 c 0
 47 347 42 356 37 371 c 0
 36 374 35 378 35 383 c 0
 35 404 47 417 53 431 c 0
 117 585 192 671 270 802 c 0
 274 809 282 818 296 818 c 0xd0
506 366 m 1
 392 368 l 2
 379 368 334 371 321 371 c 0xd0
 286 371 227 374 192 374 c 0
 180 374 147 374 121 374 c 0
 108 374 97 374 91 374 c 1xb0
 95 367 99 358 105 347 c 0
 151 266 294 49 303 49 c 0
 311 49 317 53 321 59 c 0
 364 117 469 281 506 366 c 1
104 424 m 1xb0
 108 424 118 424 130 424 c 0
 153 424 183 424 192 424 c 0xb0
 227 424 286 421 321 421 c 0xd0
 335 421 381 418 395 418 c 2
 510 416 l 1
 439 531 381 630 297 750 c 1
 228 637 160 554 104 424 c 1xb0
EndSplineSet
EndChar

StartChar: r
Encoding: 114 114 44
Width: 422
Flags: W
VStem: 176 50<12.8359 632.994 690 779.906>
LayerCount: 3
Fore
SplineSet
317 785 m 0
 330 785 342 773 342 760 c 0
 342 754 340 748 335 743 c 2
 317 725 l 2
 317 725 302 705 287 685 c 0
 266 657 242 624 226 607 c 1
 226 601 226 594 226 588 c 0
 226 579 226 571 226 564 c 0
 226 374 220 218 220 36 c 0
 220 23 208 11 195 11 c 0
 182 11 170 23 170 36 c 0
 170 218 176 374 176 564 c 0
 176 572 176 579 176 588 c 0
 176 593 178 599 176 603 c 0
 171 612 172 616 163 628 c 0
 143 655 111 682 87 706 c 0
 78 715 70 724 64 733 c 0
 61 737 60 741 60 746 c 0
 60 759 72 771 85 771 c 0
 93 771 102 767 106 760 c 0
 113 749 132 733 144 721 c 0
 154 711 164 701 175 690 c 1
 174 723 176 756 167 774 c 0
 166 776 166 778 166 780 c 0
 166 793 178 805 191 805 c 0
 202 805 212 797 215 787 c 0
 222 759 225 723 226 687 c 1
 241 707 270 749 281 760 c 2
 299 778 l 2
 304 783 311 785 317 785 c 0
EndSplineSet
EndChar

StartChar: s
Encoding: 115 115 45
Width: 538
Flags: W
HStem: 5 54<183.192 363.694> 167 53<80.5156 132.582> 226 74<227.629 268.487> 376 70<243.915 288.121> 631 54<144.623 307.656>
VStem: 213 70<239.441 287.226> 231 68<386.879 437.315> 461 52<168.474 423.523>
LayerCount: 3
Fore
SplineSet
189 821 m 0xf9
 204 821 215 809 215 794 c 0
 215 789 214 784 211 780 c 0
 191 744 163 704 144 669 c 1
 169 674 209 685 235 685 c 0
 342 685 434 585 466 502 c 0
 498 423 513 350 513 284 c 0
 513 132 429 5 280 5 c 0
 250 5 217 11 184 23 c 0
 134 41 82 72 31 119 c 0
 25 124 22 132 22 139 c 0
 22 147 24 150 26 155 c 2
 35 174 l 2
 36 175 37 177 39 179 c 0
 56 199 77 214 101 220 c 0
 103 220 105 220 107 220 c 0
 121 220 133 208 133 193 c 0
 133 181 124 170 113 167 c 0
 102 164 91 158 80 146 c 1
 122 111 163 88 200 74 c 0
 229 64 256 59 281 59 c 0
 330 59 371 78 402 110 c 0
 438 148 461 208 461 285 c 0
 461 342 448 408 419 481 c 0
 392 545 316 631 235 631 c 0
 209 631 155 613 125 613 c 2
 109 613 l 2
 100 613 90 614 85 619 c 0
 78 626 81 642 81 650 c 0
 81 659 84 667 86 672 c 0
 107 714 143 766 167 808 c 0
 172 815 180 821 189 821 c 0xf9
231 421 m 0xfb
 231 434 243 446 256 446 c 0
 267 446 277 438 282 432 c 2
 294 416 l 2
 297 412 299 406 299 401 c 0
 299 388 287 376 274 376 c 0
 266 376 259 380 254 386 c 2
 247 396 l 1
 239 401 231 410 231 421 c 0xfb
283 251 m 0xfd
 283 238 271 226 258 226 c 0
 251 226 244 230 239 235 c 2
 226 250 l 1
 220 254 213 262 213 274 c 0
 213 289 224 300 238 300 c 0
 251 300 258 291 264 283 c 2
 277 268 l 2
 281 263 283 257 283 251 c 0xfd
EndSplineSet
EndChar

StartChar: t
Encoding: 116 116 46
Width: 466
Flags: W
HStem: 8 50<172.465 306.69>
VStem: 44 50<141.02 435.657> 257 51<691 780.906> 367 50<145.815 533.658>
LayerCount: 3
Fore
SplineSet
95 214 m 0
 99 139 158 58 245 58 c 0
 248 58 250 58 253 58 c 0
 337 63 356 153 362 235 c 0
 365 280 367 320 367 362 c 0
 367 386 366 410 365 436 c 0
 362 488 345 560 314 587 c 0
 304 596 293 601 277 601 c 0
 276 601 275 601 273 601 c 0
 184 596 134 492 112 423 c 1
 107 359 94 312 94 246 c 0
 94 236 94 225 95 214 c 0
255 8 m 0
 252 8 249 8 245 8 c 0
 133 8 51 109 45 211 c 0
 44 223 44 234 44 245 c 0
 44 316 57 363 62 430 c 0
 62 432 62 433 63 435 c 0
 86 509 139 620 237 646 c 1
 211 671 178 698 162 714 c 0
 153 723 152 725 146 734 c 0
 143 738 142 742 142 747 c 0
 142 760 154 772 167 772 c 0
 175 772 184 768 188 761 c 0
 195 750 214 734 226 722 c 0
 236 712 246 702 257 691 c 1
 256 724 258 757 249 775 c 0
 248 777 248 779 248 781 c 0
 248 794 260 806 273 806 c 0
 284 806 294 798 297 788 c 0
 304 760 307 724 308 688 c 1
 323 708 352 750 363 761 c 2
 381 779 l 2
 386 784 393 786 399 786 c 0
 412 786 424 774 424 761 c 0
 424 755 422 749 417 744 c 2
 399 726 l 1
 399 726 384 706 369 686 c 0
 358 672 336 657 315 644 c 1
 384 617 410 523 415 439 c 0
 416 413 417 387 417 362 c 0
 417 319 415 277 412 231 c 0
 404 121 368 14 255 8 c 0
EndSplineSet
EndChar

StartChar: u
Encoding: 117 117 47
Width: 550
Flags: W
HStem: 150 62<100.55 266.968> 157 48<101.893 270 322 464>
VStem: 270 50<9.73096 152 204 304.62> 278 50<5.30167 151.314>
LayerCount: 3
Fore
SplineSet
270 204 m 1xa0
 270 205 270 207 270 209 c 0
 270 219 269 233 269 247 c 0
 269 275 272 303 288 305 c 0
 289 305 290 306 291 306 c 0
 303 305 317 296 319 283 c 0
 319 282 319 281 319 280 c 2
 320 202 l 1
 355 202 407 205 449 205 c 0
 454 205 459 205 464 205 c 1x60
 406 395 368 550 293 718 c 1
 286 704 279 690 275 676 c 0
 218 487 166 398 99 212 c 1
 161 211 205 205 270 204 c 1xa0
56 237 m 0
 122 422 172 503 227 690 c 0
 237 723 254 752 266 786 c 0
 270 796 277 802 286 803 c 0
 295 804 305 801 310 792 c 0
 417 610 444 412 519 198 c 0
 521 193 523 190 523 183 c 0
 523 171 516 160 503 158 c 2
 499 157 l 1
 456 157 383 152 334 152 c 0
 330 152 326 152 322 152 c 1
 323 144 l 2
 325 132 328 95 328 78 c 0
 328 76 328 74 328 73 c 0
 328 70 328 65 328 59 c 0
 328 48 328 35 328 28 c 0
 328 16 325 6 313 4 c 2
 309 4 l 1
 289 4 281 22 278 42 c 0x50
 277 50 277 59 277 66 c 0
 277 87 273 136 270 153 c 1
 268 153 265 153 262 153 c 0
 238 153 198 150 159 150 c 0xa0
 102 150 47 157 42 189 c 2
 42 194 l 1
 42 207 52 225 56 237 c 0
EndSplineSet
EndChar

StartChar: v
Encoding: 118 118 48
Width: 420
Flags: W
VStem: 73 50<126.594 749.579> 79 50<50.1465 343.598 538.203 780.459> 274 54<60.0306 519.522> 275 45<301.222 695.461>
LayerCount: 3
Fore
SplineSet
79 74 m 2x40
 81 176 l 1
 78 228 73 295 73 346 c 0
 73 483 77 619 77 756 c 0
 77 769 89 781 102 781 c 0
 115 781 127 769 127 756 c 0
 127 619 123 483 123 346 c 0x80
 123 298 131 228 131 176 c 1
 129 74 l 2
 129 58 117 50 104 50 c 0
 92 50 79 58 79 74 c 2x40
328 86 m 0x20
 328 73 322 57 309 57 c 0
 303 57 296 59 291 64 c 2
 281 74 l 2
 275 80 274 90 274 101 c 0x20
 274 110 275 120 275 129 c 0
 275 183 275 239 275 295 c 0
 275 385 274 480 270 559 c 0
 267 607 263 648 257 678 c 0
 252 702 245 719 242 723 c 0
 239 727 237 733 237 738 c 0
 237 751 249 763 262 763 c 0
 270 763 277 759 282 753 c 0
 294 737 300 715 306 688 c 0
 312 654 317 611 320 562 c 0x10
 324 482 325 387 325 297 c 0
 325 240 325 183 325 129 c 0
 325 110 328 101 328 86 c 0x20
EndSplineSet
EndChar

StartChar: w
Encoding: 119 119 49
Width: 596
Flags: W
HStem: 222 72<128.146 172.854 278.1 324.9> 554 66<278.433 327.323 419.204 463.804>
VStem: 123 55<222.782 293.223> 275 53<557.18 617.301> 275 53<219.375 292.584> 421 50<550.214 571 598 616.591>
LayerCount: 3
Fore
SplineSet
126 25 m 0xe4
 113 25 101 37 101 50 c 0
 101 59 106 67 113 72 c 2
 161 100 l 2
 175 108 200 115 234 127 c 0
 301 151 393 183 454 217 c 0
 465 222 473 228 477 231 c 1
 475 248 465 266 445 286 c 0
 365 366 171 435 89 517 c 0
 65 541 47 569 47 602 c 0
 47 615 57 623 64 630 c 0
 134 700 231 741 303 805 c 0
 308 809 314 811 320 811 c 0
 333 811 345 799 345 786 c 0
 345 779 342 772 337 767 c 0
 263 703 164 660 98 593 c 1
 101 581 109 568 124 553 c 0
 159 518 224 481 292 444 c 0
 362 406 434 368 480 321 c 0
 507 294 527 263 527 226 c 0
 527 211 519 203 513 197 c 0
 504 188 492 181 478 173 c 0
 415 138 319 105 251 80 c 0
 220 69 195 60 185 56 c 1
 139 28 l 2
 135 26 130 25 126 25 c 0xe4
269 595 m 0
 269 609 281 620 294 620 c 0
 310 620 317 608 324 600 c 0
 331 596 335 587 335 579 c 0
 335 566 324 554 310 554 c 0
 293 554 287 567 280 575 c 0
 274 579 269 587 269 595 c 0
177 252 m 2
 177 250 178 248 178 246 c 0
 178 231 165 222 152 222 c 0
 141 222 131 228 128 241 c 2
 124 265 l 2
 124 267 123 269 123 271 c 0
 123 285 136 294 149 294 c 0
 160 294 170 288 173 275 c 2
 177 252 l 2
471 575 m 0
 471 562 459 550 446 550 c 0
 434 550 423 560 421 571 c 1
 414 590 l 2
 414 591 414 593 414 594 c 0
 414 607 426 619 439 619 c 0
 451 619 460 609 464 598 c 2
 471 579 l 2
 471 578 471 576 471 575 c 0
328 246 m 2xec
 328 245 328 244 328 243 c 0
 328 227 315 219 302 219 c 0
 291 219 280 225 278 240 c 2
 275 266 l 2
 275 267 275 268 275 269 c 0
 275 284 288 293 301 293 c 0
 312 293 323 286 325 272 c 2
 328 246 l 2xec
EndSplineSet
EndChar

StartChar: x
Encoding: 120 120 50
Width: 422
Flags: W
HStem: 768 50<129.39 297.418>
VStem: 166 50<311.171 620.734> 182 50<6.21448 247.267>
LayerCount: 3
Fore
SplineSet
49 784 m 0xc0
 49 798 61 809 74 809 c 0
 142 809 211 818 279 818 c 0
 314 818 356 817 356 781 c 0
 356 762 347 749 338 734 c 0
 312 692 264 634 218 608 c 1
 217 582 216 563 216 529 c 0xc0
 216 367 232 192 232 31 c 0
 232 18 220 6 207 6 c 0
 194 6 182 17 182 30 c 0xa0
 177 192 166 365 166 529 c 0
 166 564 167 583 168 610 c 1
 140 647 105 705 78 744 c 0
 72 751 59 764 56 767 c 0
 51 771 49 778 49 784 c 0xc0
210 662 m 0
 239 683 264 716 285 745 c 0
 291 753 296 761 299 768 c 1
 293 768 286 768 279 768 c 0
 228 768 178 763 127 760 c 1
 148 730 168 697 189 666 c 0
 198 654 l 0
 202 654 206 659 210 662 c 0
EndSplineSet
EndChar

StartChar: y
Encoding: 121 121 51
Width: 634
Flags: W
HStem: 0 49<284.609 329.069> 798 20G<289 301.5>
LayerCount: 3
Fore
SplineSet
92 72 m 0
 79 72 67 84 67 97 c 0
 67 102 68 107 71 111 c 2
 79 123 l 2
 83 129 87 132 95 142 c 0
 108 159 124 181 144 193 c 1
 109 243 77 293 56 331 c 0
 47 347 42 356 37 371 c 0
 36 374 35 378 35 383 c 0
 35 404 47 417 53 431 c 0
 82 501 113 556 146 609 c 1
 143 611 141 613 139 615 c 2
 93 679 l 2
 90 684 88 689 88 694 c 0
 88 707 100 719 113 719 c 0
 121 719 129 715 133 709 c 2
 174 652 l 1
 205 700 237 747 270 802 c 0
 274 809 282 818 296 818 c 0
 307 818 314 811 319 805 c 0
 364 743 401 687 436 632 c 1
 441 638 447 640 453 645 c 0
 469 661 480 686 500 702 c 0
 504 705 510 707 515 707 c 0
 529 707 540 695 540 682 c 0
 540 674 536 667 531 662 c 0
 509 646 497 614 472 597 c 1
 464 586 l 1
 497 532 530 478 566 419 c 0
 568 415 570 411 570 406 c 0
 570 383 562 368 554 348 c 0
 537 306 510 257 481 208 c 1
 494 198 506 183 516 172 c 0
 517 171 517 170 518 169 c 2
 552 117 l 2
 555 113 556 108 556 104 c 0
 556 90 545 79 531 79 c 0
 523 79 514 83 510 90 c 2
 477 141 l 2
 470 148 462 158 454 165 c 1
 419 109 382 58 357 24 c 0
 348 11 334 0 313 0 c 0
 302 0 297 4 293 7 c 0
 287 11 282 15 277 20 c 0
 252 45 213 95 173 150 c 0
 172 150 171 150 170 150 c 2
 151 137 136 110 120 93 c 0
 113 84 107 72 92 72 c 0
519 401 m 1
 444 523 385 625 297 750 c 1
 226 633 156 548 99 411 c 0
 95 403 89 390 86 383 c 1
 89 377 96 364 105 347 c 0
 151 266 294 49 303 49 c 0
 311 49 317 53 321 59 c 0
 369 123 493 319 516 391 c 2
 519 401 l 1
EndSplineSet
EndChar

StartChar: z
Encoding: 122 122 52
Width: 538
Flags: W
HStem: 3 54<176.306 360.563> 140 53<372.418 424.484> 629 54<293.647 380.742>
VStem: 27 52<166.474 421.523> 240 50<258.574 426.82 682 807.543> 250 50<255.18 402.078>
LayerCount: 3
Fore
SplineSet
474 594 m 0xf0
 474 581 462 569 449 569 c 0
 433 569 415 591 400 598 c 0
 377 609 333 629 305 629 c 0
 224 629 148 543 121 479 c 0
 92 406 79 340 79 283 c 0
 79 206 102 146 138 108 c 0
 169 76 210 57 259 57 c 0
 284 57 311 61 340 72 c 0
 377 86 383 84 425 119 c 1
 414 131 403 137 392 140 c 0
 381 143 372 154 372 166 c 0
 372 181 384 193 398 193 c 0
 400 193 402 193 404 193 c 0
 428 187 449 172 466 152 c 0
 468 150 469 148 470 147 c 2
 479 128 l 2
 481 123 483 120 483 112 c 0
 483 105 480 97 474 92 c 0
 423 45 406 39 356 21 c 0
 323 9 290 3 260 3 c 0
 111 3 27 130 27 282 c 0
 27 348 42 421 74 500 c 0
 99 566 163 642 241 671 c 1
 245 784 l 1
 245 800 258 809 271 809 c 0
 283 809 295 801 295 785 c 1
 291 682 l 1
 296 682 300 683 305 683 c 0
 359 683 401 645 444 630 c 0
 459 625 474 613 474 594 c 0xf0
265 427 m 0
 279 427 288 417 290 404 c 0xf8
 293 363 296 322 300 282 c 1
 300 280 l 2
 300 266 289 255 275 255 c 0
 262 255 251 265 250 278 c 0xf4
 246 318 243 359 240 400 c 1
 240 402 l 2xf8
 240 416 251 427 265 427 c 0
EndSplineSet
EndChar

StartChar: zero
Encoding: 48 48 53
Width: 405
Flags: W
HStem: -0 21G<176.5 189.5> 668 50<210 265.473> 795 20G<172.5 185.5>
VStem: 36 50<233.518 583.324> 158 50<0.214481 110.302 162 659 718 813.992> 317 50<231.53 598.256>
LayerCount: 3
Fore
SplineSet
183 -0 m 0
 170 0 158 12 158 25 c 2
 158 108 l 1
 80 132 53 223 42 310 c 0
 38 341 36 372 36 403 c 0
 36 457 41 508 48 549 c 0
 61 623 97 694 158 711 c 1
 157 737 154 764 154 790 c 0
 154 803 166 815 179 815 c 0
 192 815 203 804 204 791 c 2
 208 718 l 1
 211 718 214 718 217 718 c 0
 286 718 323 668 342 616 c 0
 361 563 367 499 367 430 c 0
 367 366 363 313 359 266 c 0
 356 226 330 186 301 157 c 0
 276 132 244 112 209 104 c 1
 208 25 l 2
 208 12 196 0 183 -0 c 0
317 430 m 0
 317 515 308 605 266 647 c 0
 254 659 239 668 218 668 c 0
 216 668 213 668 210 668 c 0
 211 361 l 1
 209 156 l 1
 256 172 301 222 309 271 c 1
 312 317 317 369 317 430 c 0
158 162 m 1
 161 361 l 1
 158 659 l 1
 127 628 108 599 97 540 c 0
 90 502 86 453 86 402 c 0
 86 303 103 195 158 162 c 1
EndSplineSet
EndChar

StartChar: one
Encoding: 49 49 54
Width: 405
Flags: W
HStem: -0 21G<176.5 189.5> 376 63<175.581 224.419> 669 49<208 265.473> 795 20G<172.5 185.5>
VStem: 36 50<233.518 577.03> 158 50<0.214481 110.302 718 813.992> 170 60<379.807 435.193> 317 50<234.699 598.256>
LayerCount: 3
Fore
SplineSet
183 -0 m 0xfd
 170 0 158 12 158 25 c 2
 158 108 l 1
 80 132 53 223 42 310 c 0
 38 341 36 372 36 403 c 0
 36 457 41 508 48 549 c 0
 61 623 97 694 158 711 c 1
 157 737 154 764 154 790 c 0
 154 803 166 815 179 815 c 0
 192 815 203 804 204 791 c 2
 208 718 l 1
 211 718 214 718 217 718 c 0
 286 718 323 668 342 616 c 0
 361 563 367 499 367 430 c 0
 367 366 363 313 359 266 c 0
 356 226 330 186 301 157 c 0
 276 132 244 112 209 104 c 1
 208 25 l 2
 208 12 196 0 183 -0 c 0xfd
158 162 m 0
 168 156 209 156 209 156 c 1
 238 158 301 222 309 271 c 1
 312 317 317 369 317 430 c 0
 317 515 308 605 266 647 c 0
 251 662 231 669 201 669 c 0
 188 669 170 667 158 659 c 0
 149 653 108 599 97 540 c 0
 90 502 86 453 86 402 c 0
 86 303 103 195 158 162 c 0
195 376 m 0
 182 376 170 388 170 401 c 0
 170 406 172 412 175 416 c 2
 185 429 l 2
 190 435 197 439 205 439 c 0
 218 439 230 427 230 414 c 0xfb
 230 409 228 403 225 399 c 2
 215 386 l 2
 210 380 203 376 195 376 c 0
EndSplineSet
EndChar

StartChar: two
Encoding: 50 50 55
Width: 405
Flags: W
HStem: -0 21G<176.5 189.5> 669 49<156.568 265.473> 743 55<157.16 208.686>
VStem: 36 50<231.657 578.725> 156 54<0.541016 110.444 743.775 797.066> 317 50<234.699 598.256>
LayerCount: 3
Fore
SplineSet
156 162 m 0
 166 156 209 156 209 156 c 1
 238 158 301 222 309 271 c 1
 312 317 317 369 317 430 c 0
 317 515 308 605 266 647 c 0
 251 662 231 669 201 669 c 0
 188 669 168 667 156 659 c 0
 147 653 108 599 97 540 c 0
 90 502 86 453 86 402 c 0
 86 303 101 195 156 162 c 0
208 718 m 2
 211 718 214 718 217 718 c 0
 286 718 323 668 342 616 c 0
 361 563 367 499 367 430 c 0
 367 366 363 313 359 266 c 0
 356 226 330 186 301 157 c 0
 276 132 244 112 209 104 c 1
 208 25 l 2
 208 12 196 0 183 -0 c 0
 170 0 156 12 156 25 c 2
 156 108 l 1
 78 132 53 223 42 310 c 0
 38 341 36 372 36 403 c 0
 36 457 41 508 48 549 c 0
 61 623 95 694 156 711 c 0
 176 717 208 718 208 718 c 2
185 743 m 0
 176 743 168 747 163 754 c 0
 159 759 156 766 156 773 c 0
 156 787 167 798 181 798 c 0
 190 798 198 793 202 786 c 0
 207 781 210 775 210 768 c 0
 210 754 199 743 185 743 c 0
EndSplineSet
EndChar

StartChar: three
Encoding: 51 51 56
Width: 405
Flags: W
HStem: 17 64<161.838 215.379> 101 55<157.492 247.344> 669 49<208 265.473> 795 20G<172.5 185.5>
VStem: 36 50<233.518 577.03> 154 54<718 813.992> 157 64<21.8375 75.3787> 317 50<234.699 598.256>
LayerCount: 3
Fore
SplineSet
157 162 m 0xfb
 167 156 209 156 209 156 c 1
 238 158 301 222 309 271 c 1
 312 317 317 369 317 430 c 0
 317 515 308 605 266 647 c 0
 251 662 231 669 201 669 c 0
 188 669 169 667 157 659 c 0
 148 653 108 599 97 540 c 0
 90 502 86 453 86 402 c 0
 86 303 102 195 157 162 c 0xfb
157 108 m 0
 78 132 53 223 42 310 c 0
 38 341 36 372 36 403 c 0
 36 457 41 508 48 549 c 0
 61 623 96 694 157 711 c 1xfb
 156 737 154 764 154 790 c 0
 154 803 166 815 179 815 c 0
 192 815 203 804 204 791 c 2
 208 718 l 1xfd
 211 718 214 718 217 718 c 0
 286 718 323 668 342 616 c 0
 361 563 367 499 367 430 c 0
 367 366 363 313 359 266 c 0
 356 226 330 186 301 157 c 0
 276 132 227 107 209 104 c 0
 202 103 197 101 190 101 c 0
 183 101 172 104 157 108 c 0
182 81 m 0
 199 81 221 59 221 42 c 0
 221 29 209 17 196 17 c 0
 177 17 157 37 157 56 c 0
 157 69 169 81 182 81 c 0
EndSplineSet
EndChar

StartChar: four
Encoding: 52 52 57
Width: 405
Flags: W
HStem: -0 21G<176.5 189.5> 383 66<173.582 219.765> 669 49<156.568 265.473> 743 55<157.175 208.505>
VStem: 36 50<231.657 578.699> 156 54<0.541016 110.444 743.98 796.893> 169 58<390.235 446.436> 317 50<234.699 598.256>
LayerCount: 3
Fore
SplineSet
181 798 m 0xfd
 195 798 210 782 210 768 c 0
 210 754 199 743 185 743 c 0
 170 743 156 757 156 773 c 0
 156 787 167 798 181 798 c 0xfd
156 711 m 0
 175 717 192 718 204 718 c 0
 209 718 214 718 217 718 c 0
 286 718 323 668 342 616 c 0
 361 563 367 499 367 430 c 0
 367 366 363 313 359 266 c 0
 356 226 330 186 301 157 c 0
 276 132 244 112 209 104 c 1
 208 25 l 2
 208 12 196 -0 183 -0 c 0
 170 0 156 12 156 25 c 2
 156 108 l 1
 78 132 53 223 42 310 c 0
 38 341 36 372 36 403 c 0
 36 457 41 508 48 549 c 0
 61 623 95 693 156 711 c 0
156 162 m 0
 166 156 209 156 209 156 c 1
 238 158 301 222 309 271 c 1
 312 317 317 369 317 430 c 0
 317 515 308 605 266 647 c 0
 251 662 231 669 201 669 c 0
 188 669 168 667 156 659 c 0
 147 653 108 599 97 540 c 0
 90 502 86 453 86 402 c 0
 86 303 101 195 156 162 c 0
194 449 m 4
 213 449 227 427 227 409 c 4
 227 401 225 395 220 390 c 4
 215 385 209 383 202 383 c 4
 189 383 169 405 169 418 c 4
 169 419 169 419 169 420 c 4xfb
 169 436 178 449 194 449 c 4
EndSplineSet
EndChar

StartChar: five
Encoding: 53 53 58
Width: 405
Flags: W
HStem: 17 64<161.838 215.379> 101 55<157.492 247.344> 383 66<173.582 219.765> 669 49<208 265.473> 795 20G<172.5 185.5>
VStem: 36 50<233.518 577.03> 154 54<718 813.992> 157 64<21.8375 75.3787> 169 58<390.235 446.436> 317 50<234.699 598.256>
LayerCount: 3
Fore
SplineSet
194 449 m 0xfcc0
 213 449 227 427 227 409 c 0
 227 401 225 395 220 390 c 0
 215 385 209 383 202 383 c 0
 189 383 169 405 169 418 c 0
 169 419 169 419 169 420 c 0
 169 436 178 449 194 449 c 0xfcc0
157 162 m 0xfd40
 167 156 209 156 209 156 c 1
 238 158 301 222 309 271 c 1
 312 317 317 369 317 430 c 0
 317 515 308 605 266 647 c 0
 251 662 231 669 201 669 c 0
 188 669 169 667 157 659 c 0
 148 653 108 599 97 540 c 0
 90 502 86 453 86 402 c 0
 86 303 102 195 157 162 c 0xfd40
157 108 m 0
 78 132 53 223 42 310 c 0
 38 341 36 372 36 403 c 0
 36 457 41 508 48 549 c 0
 61 623 96 694 157 711 c 1xfd40
 156 737 154 764 154 790 c 0
 154 803 166 815 179 815 c 0
 192 815 203 804 204 791 c 2
 208 718 l 1xfe40
 211 718 214 718 217 718 c 0
 286 718 323 668 342 616 c 0
 361 563 367 499 367 430 c 0
 367 366 363 313 359 266 c 0
 356 226 330 186 301 157 c 0
 276 132 227 107 209 104 c 0
 202 103 197 101 190 101 c 0
 183 101 172 104 157 108 c 0
182 81 m 0
 199 81 221 59 221 42 c 0
 221 29 209 17 196 17 c 0
 177 17 157 37 157 56 c 0
 157 69 169 81 182 81 c 0
EndSplineSet
EndChar

StartChar: six
Encoding: 54 54 59
Width: 405
Flags: W
HStem: -0 21G<176.5 189.5> 387 50<87 316> 669 49<208 265.473> 795 20G<172.5 185.5>
VStem: 36 50<234.808 384 434 576.51> 158 50<0.214481 110.302 718 813.992> 316 51<232.641 385.582 434 600.809>
LayerCount: 3
Fore
SplineSet
183 -0 m 0
 170 -0 158 12 158 25 c 2
 158 108 l 1
 80 132 53 223 42 310 c 0
 38 341 36 372 36 403 c 0
 36 457 41 508 48 549 c 0
 61 623 97 694 158 711 c 1
 157 737 154 764 154 790 c 0
 154 803 166 815 179 815 c 0
 192 815 203 804 204 791 c 2
 208 718 l 1
 211 718 214 718 217 718 c 0
 286 718 323 668 342 616 c 0
 361 563 367 499 367 430 c 0
 367 366 363 313 359 266 c 0
 356 226 330 186 301 157 c 0
 276 132 244 112 209 104 c 1
 208 25 l 2
 208 12 196 -0 183 -0 c 0
316 384 m 5
 294 386 268 387 245 387 c 4
 192 387 139 385 86 384 c 5
 88 290 106 193 158 162 c 0
 168 156 209 156 209 156 c 1
 238 158 301 222 309 271 c 0
 311 305 315 342 316 384 c 5
245 437 m 4
 270 437 293 437 316 434 c 5
 316 518 307 606 266 647 c 0
 251 662 231 669 201 669 c 0
 188 669 170 667 158 659 c 0
 149 653 108 599 97 540 c 0
 91 510 88 473 87 434 c 5
 139 435 191 437 245 437 c 4
EndSplineSet
EndChar

StartChar: seven
Encoding: 55 55 60
Width: 405
Flags: W
HStem: -0 21G<176.5 189.5> 387 50<87 316> 669 49<156.568 265.473> 743 55<157.16 208.686>
VStem: 36 50<231.293 384 434 577.551> 156 54<0.541016 110.444 743.775 797.066> 316 51<232.641 385.201 434 600.809>
LayerCount: 3
Fore
SplineSet
156 162 m 0
 166 156 209 156 209 156 c 1
 238 158 301 222 309 271 c 0
 311 305 315 342 316 384 c 1
 297 385 267 387 245 387 c 0
 194 387 100 385 86 384 c 1
 88 290 104 193 156 162 c 0
208 718 m 6
 211 718 214 718 217 718 c 4
 286 718 323 668 342 616 c 0
 361 563 367 499 367 430 c 0
 367 366 363 313 359 266 c 0
 356 226 330 186 301 157 c 0
 276 132 244 112 209 104 c 1
 208 25 l 2
 208 12 196 0 183 -0 c 0
 170 0 156 12 156 25 c 2
 156 108 l 1
 78 132 53 223 42 310 c 0
 38 341 36 372 36 403 c 0
 36 457 41 508 48 549 c 0
 61 623 95 694 156 711 c 4
 176 717 208 718 208 718 c 6
185 743 m 4
 176 743 168 747 163 754 c 4
 159 759 156 766 156 773 c 4
 156 787 167 798 181 798 c 4
 190 798 198 793 202 786 c 4
 207 781 210 775 210 768 c 4
 210 754 199 743 185 743 c 4
87 434 m 1
 138 435 192 437 245 437 c 0
 270 437 293 434 316 434 c 1
 316 518 307 606 266 647 c 0
 251 662 231 669 201 669 c 0
 188 669 168 667 156 659 c 0
 147 653 108 599 97 540 c 0
 91 510 88 473 87 434 c 1
EndSplineSet
EndChar

StartChar: eight
Encoding: 56 56 61
Width: 405
Flags: W
HStem: 17 64<161.838 215.379> 101 55<157.492 247.344> 387 50<87 316> 669 49<208 265.473> 795 20G<172.5 185.5>
VStem: 36 50<233.316 384 434 576.51> 154 54<718 813.992> 157 64<21.8375 75.3787> 316 51<232.641 385.201 434 600.809>
LayerCount: 3
Fore
SplineSet
182 81 m 0xfd80
 199 81 221 59 221 42 c 0
 221 29 209 17 196 17 c 0
 177 17 157 37 157 56 c 0
 157 69 169 81 182 81 c 0xfd80
157 108 m 0
 78 132 53 223 42 310 c 0
 38 341 36 372 36 403 c 0
 36 457 41 508 48 549 c 0
 61 623 96 694 157 711 c 1xfd80
 156 737 154 764 154 790 c 0
 154 803 166 815 179 815 c 0
 192 815 203 804 204 791 c 2
 208 718 l 1xfe80
 211 718 214 718 217 718 c 0
 286 718 323 668 342 616 c 0
 361 563 367 499 367 430 c 0
 367 366 363 313 359 266 c 0
 356 226 330 186 301 157 c 0
 276 132 227 107 209 104 c 0
 202 103 197 101 190 101 c 0
 183 101 172 104 157 108 c 0
157 162 m 0
 167 156 209 156 209 156 c 1
 238 158 301 222 309 271 c 0
 311 305 314 342 316 384 c 1
 297 385 267 387 245 387 c 0
 194 387 100 385 86 384 c 1
 88 290 105 193 157 162 c 0
87 434 m 1
 139 435 192 437 245 437 c 0
 270 437 293 434 316 434 c 1
 316 518 307 606 266 647 c 0
 251 662 231 669 201 669 c 0
 188 669 169 667 157 659 c 0
 148 653 108 599 97 540 c 0
 91 510 88 473 87 434 c 1
EndSplineSet
EndChar

StartChar: nine
Encoding: 57 57 62
Width: 405
Flags: WO
HStem: 17 64<161.838 215.379> 101 55<157.492 250.549> 387 50<87 316> 669 49<157.568 265.473> 744 55<164.107 215.686>
VStem: 36 50<233.316 384 434 576.551> 157 64<21.8375 75.3787 747.27 795.73> 316 51<229.791 385.201 434 600.809>
LayerCount: 3
Fore
SplineSet
217 718 m 0
 286 718 323 668 342 616 c 0
 361 563 367 499 367 430 c 0
 367 366 363 313 359 266 c 0
 356 226 330 186 301 157 c 0
 276 132 227 107 209 104 c 0
 202 103 197 101 190 101 c 0
 183 101 172 103 157 108 c 0
 78 132 53 223 42 310 c 0
 38 341 36 372 36 403 c 0
 36 457 41 508 48 549 c 0
 61 623 96 695 157 711 c 0
 180 717 191 718 202 718 c 0
 207 718 211 718 217 718 c 0
192 744 m 0
 176 744 163 758 163 774 c 0
 163 788 174 799 188 799 c 0
 197 799 203 793 209 787 c 0
 214 782 217 776 217 769 c 0
 217 755 206 744 192 744 c 0
182 81 m 0
 199 81 221 59 221 42 c 0
 221 29 209 17 196 17 c 0
 177 17 157 37 157 56 c 0
 157 69 169 81 182 81 c 0
157 162 m 0
 167 156 209 156 209 156 c 1
 238 158 306 221 309 271 c 0
 311 305 314 342 316 384 c 1
 297 385 267 387 245 387 c 0
 194 387 100 385 86 384 c 1
 88 290 105 193 157 162 c 0
87 434 m 1
 139 435 192 437 245 437 c 0
 270 437 293 434 316 434 c 1
 316 518 307 606 266 647 c 0
 251 662 231 669 201 669 c 0
 188 669 169 667 157 659 c 0
 148 653 109 599 97 540 c 0
 91 510 88 473 87 434 c 1
EndSplineSet
EndChar
